<svg width="2380" height="1374" viewBox="0 0 2380 1374" fill="none" xmlns="http://www.w3.org/2000/svg">
<g clip-path="url(#clip0_541:1051)">
<rect width="2380" height="1374" fill="#9B9B9B"/>
<rect x="0.433013" y="0.25" width="711.45" height="65.6195" transform="matrix(0.866025 -0.5 2.20305e-08 1 1082.06 1010.19)" fill="#9B9B9B" stroke="white"/>
<g filter="url(#filter0_d_541:1051)">
<rect width="867.461" height="426.735" transform="matrix(0.866025 -0.5 0.866025 0.5 702.422 558.006)" fill="white"/>
<rect width="1414.12" height="330.794" transform="matrix(0.866025 -0.5 0.866025 0.5 293.047 1007.23)" fill="white"/>
<rect width="1035.36" height="167.896" transform="matrix(0.866025 -0.5 0.866025 0.5 750.023 1006.23)" fill="white"/>
<rect width="1136.29" height="119.925" transform="matrix(0.866025 -0.5 0.866025 0.5 975.916 1014.72)" fill="white"/>
<rect width="943.776" height="92.9612" transform="matrix(0.866025 -0.5 0.866025 0.5 425.873 773.47)" fill="white"/>
</g>
<path fill-rule="evenodd" clip-rule="evenodd" d="M895.426 895.296L510.284 1117.66L512.881 1119.16L898.023 896.795L895.426 895.296ZM1211.33 591.985L1259.8 564.002L1262.39 565.501L1213.93 593.484L1211.33 591.985ZM752.478 584.905L705.887 558.006L1453.67 126.275L1819.76 337.643L1701.19 406.1L1699.46 407.1L1701.19 408.1L1800.72 465.563L1703.79 521.528L1702.06 522.528L1703.79 523.528L1765.24 559.006L1766.97 560.006L1768.7 559.006L1959.98 448.575L2060.37 506.538L1079.78 1072.68L1002.75 1028.21L1001.02 1027.21L999.284 1028.21L895.426 1088.18L810.61 1039.21L808.877 1038.21L807.145 1039.21L579.523 1170.62L296.511 1007.23L888.503 665.44L890.236 664.44L888.503 663.44L832.984 631.386L831.252 630.386L829.52 631.386L506.381 817.95L429.338 773.47L752.478 586.905L754.21 585.905L752.478 584.905Z" fill="#9B9B9B"/>
<path d="M1146.07 620.484H1143.28V608.884C1143.28 607.85 1143.69 606.857 1144.42 606.126C1145.15 605.395 1146.14 604.984 1147.17 604.984H1153.75C1154.78 604.984 1155.77 605.395 1156.5 606.126C1157.22 606.857 1157.63 607.85 1157.63 608.884V620.484H1154.84H1154.34V620.984V636.984H1146.57V620.984V620.484H1146.07ZM1150.46 593.984C1151.49 593.984 1152.48 594.395 1153.2 595.126C1153.93 595.857 1154.34 596.85 1154.34 597.884C1154.34 598.919 1153.93 599.911 1153.2 600.643C1152.48 601.374 1151.49 601.784 1150.46 601.784C1149.43 601.784 1148.44 601.374 1147.71 600.643C1146.98 599.911 1146.57 598.919 1146.57 597.884C1146.57 596.85 1146.98 595.857 1147.71 595.126C1148.44 594.395 1149.43 593.984 1150.46 593.984Z" fill="#FFFAEA" fill-opacity="0.5" stroke="white"/>
<g opacity="0.7">
<rect x="0.433013" y="0.25" width="100.788" height="69.2339" transform="matrix(0.866025 -0.5 2.20305e-08 1 1729.41 319.185)" fill="#6AC040" stroke="#49864C"/>
<rect x="0.866025" width="100.788" height="88.317" transform="matrix(0.866025 -0.5 0.866025 0.5 1652.12 275.327)" fill="#6AC040" stroke="#49864C"/>
</g>
<rect width="191.68" height="67.3904" transform="matrix(0.866025 0.5 -2.20305e-08 1 1533 552.69)" fill="#9B9B9B" stroke="white"/>
<rect x="0.433013" y="0.75" width="119.089" height="68.8717" transform="matrix(0.866025 0.5 -2.20305e-08 1 1960.06 376.783)" fill="#9B9B9B" stroke="white"/>
<rect width="28.8675" height="49.1181" transform="matrix(0.866025 -0.5 2.20305e-08 1 662 982.434)" fill="#ABABAB"/>
<rect width="28.8675" height="49.1181" transform="matrix(0.866025 0.5 -2.20305e-08 1 1998 418)" fill="#ABABAB"/>
<path d="M1995.77 506.232C1996.11 506.232 1996.39 506.074 1996.39 505.879L1996.39 502.697C1996.39 502.502 1996.11 502.343 1995.77 502.343C1995.44 502.343 1995.16 502.502 1995.16 502.697L1995.16 505.525L1990.26 505.525C1989.92 505.525 1989.65 505.684 1989.65 505.879C1989.65 506.074 1989.92 506.232 1990.26 506.232L1995.77 506.232ZM1982.6 498.771L1995.34 506.129L1996.21 505.629L1983.46 498.271L1982.6 498.771Z" fill="white"/>
<path d="M2133.13 678.75L2133.13 678.748L2133.39 679.157C2135.97 683.276 2139.19 686.438 2142.38 688.282L2161.98 699.596C2165.71 701.753 2168.98 701.894 2171.28 700.567C2173.58 699.24 2175.09 696.342 2175.09 692.029C2175.09 687.719 2173.57 682.909 2171.09 678.622C2168.62 674.335 2165.21 670.617 2161.48 668.462L2133.13 678.75ZM2133.13 678.75L2132.81 678.188L2132.81 678.188L2132.77 678.123L2132.77 678.122L2132.73 678.057L2132.73 678.056L2040.68 518.628L2040.62 518.512L2040.5 518.445L2029.15 511.893C2025.42 509.738 2022.01 506.02 2019.54 501.733C2017.06 497.446 2015.55 492.636 2015.55 488.326C2015.55 484.013 2017.06 481.115 2019.36 479.789C2021.65 478.462 2024.92 478.603 2028.65 480.759C2028.65 480.759 2028.65 480.759 2028.65 480.759L2028.69 480.778L2028.69 480.779L2045.72 490.611L2045.72 490.611C2049.18 492.605 2052.68 496.15 2055.36 500.785L2147.44 660.279L2147.51 660.395L2147.62 660.462L2161.43 668.434L2161.43 668.434L2161.48 668.462L2133.13 678.75Z" fill="#9B9B9B" stroke="white"/>
<rect x="0.866025" width="39.5363" height="11" transform="matrix(0.866025 -0.5 0.866025 0.5 2005.75 538.713)" fill="#9B9B9B" stroke="white"/>
<rect x="0.433013" y="0.25" width="39.5363" height="11" transform="matrix(0.866025 -0.5 2.20305e-08 1 2016.1 544.497)" fill="#9B9B9B" stroke="white"/>
<rect x="0.866025" width="39.5363" height="11" transform="matrix(0.866025 -0.5 0.866025 0.5 2016.15 556.713)" fill="#9B9B9B" stroke="white"/>
<rect x="0.433013" y="0.25" width="39.5363" height="11" transform="matrix(0.866025 -0.5 2.20305e-08 1 2026.49 562.497)" fill="#9B9B9B" stroke="white"/>
<rect x="0.866025" width="39.5363" height="11" transform="matrix(0.866025 -0.5 0.866025 0.5 2026.55 574.713)" fill="#9B9B9B" stroke="white"/>
<rect x="0.433013" y="0.25" width="39.5363" height="11" transform="matrix(0.866025 -0.5 2.20305e-08 1 2036.89 580.497)" fill="#9B9B9B" stroke="white"/>
<rect x="0.866025" width="39.5363" height="11" transform="matrix(0.866025 -0.5 0.866025 0.5 2036.95 592.713)" fill="#9B9B9B" stroke="white"/>
<rect x="0.433013" y="0.25" width="39.5363" height="11" transform="matrix(0.866025 -0.5 2.20305e-08 1 2047.29 598.497)" fill="#9B9B9B" stroke="white"/>
<rect x="0.866025" width="39.5363" height="11" transform="matrix(0.866025 -0.5 0.866025 0.5 2047.35 610.713)" fill="#9B9B9B" stroke="white"/>
<rect x="0.433013" y="0.25" width="39.5363" height="11" transform="matrix(0.866025 -0.5 2.20305e-08 1 2057.69 616.497)" fill="#9B9B9B" stroke="white"/>
<rect x="0.866025" width="39.5363" height="11" transform="matrix(0.866025 -0.5 0.866025 0.5 2057.74 628.713)" fill="#9B9B9B" stroke="white"/>
<rect x="0.433013" y="0.25" width="39.5363" height="11" transform="matrix(0.866025 -0.5 2.20305e-08 1 2068.09 634.497)" fill="#9B9B9B" stroke="white"/>
<rect x="0.866025" width="39.5363" height="11" transform="matrix(0.866025 -0.5 0.866025 0.5 2068.14 646.713)" fill="#9B9B9B" stroke="white"/>
<rect x="0.433013" y="0.25" width="39.5363" height="11" transform="matrix(0.866025 -0.5 2.20305e-08 1 2078.48 652.497)" fill="#9B9B9B" stroke="white"/>
<rect x="0.866025" width="39.5363" height="11" transform="matrix(0.866025 -0.5 0.866025 0.5 2078.54 664.713)" fill="#9B9B9B" stroke="white"/>
<rect x="0.433013" y="0.25" width="39.5363" height="11" transform="matrix(0.866025 -0.5 2.20305e-08 1 2088.88 670.497)" fill="#9B9B9B" stroke="white"/>
<rect x="0.866025" width="39.5363" height="11" transform="matrix(0.866025 -0.5 0.866025 0.5 2088.94 682.713)" fill="#9B9B9B" stroke="white"/>
<rect x="0.866025" width="39.5363" height="11" transform="matrix(0.866025 -0.5 0.866025 0.5 2099.34 700.713)" fill="#9B9B9B" stroke="white"/>
<rect x="0.433013" y="0.25" width="39.5363" height="11" transform="matrix(0.866025 -0.5 2.20305e-08 1 2099.28 688.497)" fill="#9B9B9B" stroke="white"/>
<rect x="0.433013" y="0.25" width="39.5363" height="2.79395" transform="matrix(0.866025 -0.5 2.20305e-08 1 2109.68 706.497)" fill="#9B9B9B" stroke="white"/>
<rect x="0.866025" width="39.5363" height="14.8019" transform="matrix(0.866025 -0.5 0.866025 0.5 2108.94 709.713)" fill="#9B9B9B" stroke="white"/>
<path d="M2097.4 698.835L2097.4 698.837L2097.07 698.275L2097.07 698.275L2097.03 698.21L2097.03 698.209L2097 698.144L2097 698.143L2004.95 538.715L2004.88 538.599L2004.77 538.532L1993.42 531.98C1989.69 529.825 1986.28 526.107 1983.8 521.82C1981.33 517.532 1979.81 512.723 1979.81 508.413C1979.81 504.1 1981.32 501.202 1983.62 499.875C1985.92 498.549 1989.18 498.689 1992.92 500.846C1992.92 500.846 1992.92 500.846 1992.92 500.846L1992.95 500.865L1992.95 500.865L2009.98 510.698L2009.98 510.698C2013.45 512.692 2016.95 516.237 2019.62 520.872L2111.71 680.366L2111.77 680.482L2111.89 680.549L2125.74 688.549C2129.48 690.704 2132.88 694.422 2135.36 698.709C2137.84 702.996 2139.35 707.806 2139.35 712.116C2139.35 716.429 2137.84 719.327 2135.54 720.654C2133.24 721.98 2129.98 721.839 2126.24 719.683L2106.7 708.397L2106.7 708.396C2103.49 706.556 2100.25 703.383 2097.66 699.244L2097.4 698.835Z" fill="#9B9B9B" stroke="white"/>
<ellipse cx="2118.61" cy="654.429" rx="116.564" ry="126.344" transform="rotate(-24.6304 2118.61 654.429)" fill="url(#paint0_linear_541:1051)"/>
<rect x="0.433013" y="0.25" width="159.503" height="68.8717" transform="matrix(0.866025 -0.5 2.20305e-08 1 1214.06 524.068)" fill="#9B9B9B" stroke="white"/>
<rect width="225.167" height="67.8677" transform="matrix(0.866025 -0.5 2.20305e-08 1 1337 665.583)" fill="#9B9B9B" stroke="white"/>
<g opacity="0.7">
<rect x="0.866025" width="100.788" height="88.317" transform="matrix(0.866025 -0.5 0.866025 0.5 1445.12 604.327)" fill="#6AC040" stroke="#49864C"/>
</g>
<rect x="0.433013" y="0.25" width="472.611" height="68.8717" transform="matrix(0.866025 -0.5 2.20305e-08 1 500.058 1056.85)" fill="#9B9B9B" stroke="white"/>
<g opacity="0.7">
<rect x="0.433013" y="0.75" width="85.6024" height="69.0202" transform="matrix(0.866025 0.5 -2.20305e-08 1 430.058 704.791)" stroke="white" stroke-dasharray="12 12"/>
<rect x="0.433013" y="0.25" width="54.4256" height="69.2339" transform="matrix(0.866025 -0.5 2.20305e-08 1 505.058 748.197)" stroke="white" stroke-dasharray="12 12"/>
<rect x="0.866025" width="55.5808" height="85.3657" transform="matrix(0.866025 -0.5 0.866025 0.5 429.909 705.691)" stroke="white" stroke-dasharray="12 12"/>
</g>
<g opacity="0.7">
<rect x="0.433013" y="0.75" width="90.0349" height="69.0202" transform="matrix(0.866025 0.5 -2.20305e-08 1 502.558 1056.45)" fill="#5DB033" stroke="#49864C"/>
<rect x="0.433013" y="0.25" width="100.788" height="69.2339" transform="matrix(0.866025 -0.5 2.20305e-08 1 581.396 1102.19)" fill="#6AC040" stroke="#49864C"/>
<rect x="0.866025" width="100.788" height="88.317" transform="matrix(0.866025 -0.5 0.866025 0.5 504.104 1058.33)" fill="#6AC040" stroke="#49864C"/>
</g>
<path d="M1445.43 604.75L1523.41 649.767L1523.41 718.788L1445.43 673.77L1445.43 604.75Z" fill="#5DB033" stroke="#49864C"/>
<path d="M1652.43 275.327L1729.41 319.767L1729.41 388.787L1652.43 344.347L1652.43 275.327Z" fill="#5DB033" stroke="#49864C"/>
<g opacity="0.7">
<rect x="-0.433435" y="-0.250733" width="77.1006" height="67.6008" transform="matrix(-0.86687 0.498534 -1.09882e-07 -1 1696.14 715.778)" fill="#CD97B8" stroke="#C05799"/>
<path d="M1610.57 698.859L1610.57 766.478L1523.19 716.748L1523.19 649.128L1610.57 698.859Z" fill="#CD97B8" stroke="#C05799"/>
<mask id="path-54-inside-1_541:1051" fill="white">
<path d="M1698.84 648.911L1611.51 699.132L1523.28 648.39L1610.61 598.169L1698.84 648.911Z"/>
</mask>
<path d="M1698.84 648.911L1611.51 699.132L1523.28 648.39L1610.61 598.169L1698.84 648.911Z" fill="#CD97B8"/>
<path d="M1698.84 648.911L1699.34 649.778L1700.85 648.911L1699.34 648.044L1698.84 648.911ZM1611.51 699.132L1611.02 699.999L1611.51 700.285L1612.01 699.999L1611.51 699.132ZM1523.28 648.39L1522.78 647.523L1521.28 648.39L1522.78 649.257L1523.28 648.39ZM1610.61 598.169L1611.11 597.303L1610.61 597.016L1610.11 597.303L1610.61 598.169ZM1698.34 648.044L1611.02 698.265L1612.01 699.999L1699.34 649.778L1698.34 648.044ZM1612.01 698.265L1523.78 647.523L1522.78 649.257L1611.02 699.999L1612.01 698.265ZM1523.78 649.257L1611.11 599.036L1610.11 597.303L1522.78 647.523L1523.78 649.257ZM1610.11 599.036L1698.34 649.778L1699.34 648.044L1611.11 597.303L1610.11 599.036Z" fill="#C05799" mask="url(#path-54-inside-1_541:1051)"/>
</g>
<ellipse cx="1579.26" cy="1198.49" rx="311.642" ry="82.4903" transform="rotate(150.072 1579.26 1198.49)" fill="url(#paint1_linear_541:1051)"/>
<g opacity="0.7" filter="url(#filter1_d_541:1051)">
<rect width="90.6711" height="71.0139" transform="matrix(-0.866025 0.5 6.53923e-08 -1 1159 1027.15)" fill="#CD97B8" fill-opacity="0.71" stroke="#C05799"/>
<path d="M1080.49 1072.5L1004 1028.88L1004 957.847L1080.49 1001.47L1080.49 1072.5Z" fill="#CD97B8" fill-opacity="0.7" stroke="#C05799"/>
<path d="M1159.05 955.722L1080.53 1001.05L1004.4 957.101L1082.92 911.769L1159.05 955.722Z" fill="#CD97B8" fill-opacity="0.71"/>
<path d="M1159.05 955.722L1159.3 956.155L1160.05 955.722L1159.3 955.289L1159.05 955.722ZM1080.53 1001.05L1080.28 1001.49L1080.53 1001.63L1080.78 1001.49L1080.53 1001.05ZM1004.4 957.101L1004.15 956.668L1003.4 957.101L1004.15 957.534L1004.4 957.101ZM1082.92 911.769L1083.17 911.336L1082.92 911.192L1082.67 911.336L1082.92 911.769ZM1158.8 955.289L1080.28 1000.62L1080.78 1001.49L1159.3 956.155L1158.8 955.289ZM1080.78 1000.62L1004.65 956.668L1004.15 957.534L1080.28 1001.49L1080.78 1000.62ZM1004.65 957.534L1083.17 912.202L1082.67 911.336L1004.15 956.668L1004.65 957.534ZM1082.67 912.202L1158.8 956.155L1159.3 955.289L1083.17 911.336L1082.67 912.202Z" fill="#C05799"/>
</g>
<rect x="0.433013" y="0.25" width="711.45" height="70.7312" transform="matrix(0.866025 -0.5 2.20305e-08 1 1082.06 1005.16)" fill="#9B9B9B" stroke="white"/>
<path d="M714.282 863C715.31 863 716.295 863.408 717.022 864.135C717.749 864.862 718.157 865.848 718.157 866.875C718.157 867.903 717.749 868.889 717.022 869.616C716.295 870.342 715.31 870.751 714.282 870.751C713.254 870.751 712.268 870.342 711.542 869.616C710.815 868.889 710.407 867.903 710.407 866.875C710.407 865.848 710.815 864.862 711.542 864.135C712.268 863.408 713.254 863 714.282 863ZM711.375 872.688H717.188C718.216 872.688 719.202 873.097 719.929 873.824C720.656 874.55 721.064 875.536 721.064 876.564V887.221H718.157V901.754H710.407V887.221H707.5V876.564C707.5 875.536 707.908 874.55 708.635 873.824C709.362 873.097 710.348 872.688 711.375 872.688ZM727.846 882.377C727.846 881.349 728.254 880.363 728.981 879.637C729.708 878.91 730.693 878.502 731.721 878.502C732.749 878.502 733.735 878.91 734.461 879.637C735.188 880.363 735.597 881.349 735.597 882.377C735.597 883.405 735.188 884.39 734.461 885.117C733.735 885.844 732.749 886.252 731.721 886.252C730.693 886.252 729.708 885.844 728.981 885.117C728.254 884.39 727.846 883.405 727.846 882.377ZM728.815 888.19H734.628L737.534 895.941H734.628V901.754H728.815V895.941H725.908L728.815 888.19Z" fill="#FFFDFD"/>
<path d="M1027.78 684C1028.81 684 1029.8 684.408 1030.52 685.135C1031.25 685.862 1031.66 686.848 1031.66 687.875C1031.66 688.903 1031.25 689.889 1030.52 690.616C1029.8 691.342 1028.81 691.751 1027.78 691.751C1026.75 691.751 1025.77 691.342 1025.04 690.616C1024.31 689.889 1023.91 688.903 1023.91 687.875C1023.91 686.848 1024.31 685.862 1025.04 685.135C1025.77 684.408 1026.75 684 1027.78 684ZM1024.88 693.688H1030.69C1031.72 693.688 1032.7 694.097 1033.43 694.824C1034.16 695.55 1034.56 696.536 1034.56 697.564V708.221H1031.66V722.754H1023.91V708.221H1021V697.564C1021 696.536 1021.41 695.55 1022.14 694.824C1022.86 694.097 1023.85 693.688 1024.88 693.688ZM1041.35 703.377C1041.35 702.349 1041.75 701.363 1042.48 700.637C1043.21 699.91 1044.19 699.502 1045.22 699.502C1046.25 699.502 1047.23 699.91 1047.96 700.637C1048.69 701.363 1049.1 702.349 1049.1 703.377C1049.1 704.405 1048.69 705.39 1047.96 706.117C1047.23 706.844 1046.25 707.252 1045.22 707.252C1044.19 707.252 1043.21 706.844 1042.48 706.117C1041.75 705.39 1041.35 704.405 1041.35 703.377ZM1042.31 709.19H1048.13L1051.03 716.941H1048.13V722.754H1042.31V716.941H1039.41L1042.31 709.19Z" fill="#FFFDFD"/>
<path d="M1745.78 567C1746.81 567 1747.8 567.408 1748.52 568.135C1749.25 568.862 1749.66 569.848 1749.66 570.875C1749.66 571.903 1749.25 572.889 1748.52 573.616C1747.8 574.342 1746.81 574.751 1745.78 574.751C1744.75 574.751 1743.77 574.342 1743.04 573.616C1742.31 572.889 1741.91 571.903 1741.91 570.875C1741.91 569.848 1742.31 568.862 1743.04 568.135C1743.77 567.408 1744.75 567 1745.78 567ZM1742.88 576.688H1748.69C1749.72 576.688 1750.7 577.097 1751.43 577.824C1752.16 578.55 1752.56 579.536 1752.56 580.564V591.221H1749.66V605.754H1741.91V591.221H1739V580.564C1739 579.536 1739.41 578.55 1740.14 577.824C1740.86 577.097 1741.85 576.688 1742.88 576.688ZM1759.35 586.377C1759.35 585.349 1759.75 584.363 1760.48 583.637C1761.21 582.91 1762.19 582.502 1763.22 582.502C1764.25 582.502 1765.23 582.91 1765.96 583.637C1766.69 584.363 1767.1 585.349 1767.1 586.377C1767.1 587.405 1766.69 588.39 1765.96 589.117C1765.23 589.844 1764.25 590.252 1763.22 590.252C1762.19 590.252 1761.21 589.844 1760.48 589.117C1759.75 588.39 1759.35 587.405 1759.35 586.377ZM1760.31 592.19H1766.13L1769.03 599.941H1766.13V605.754H1760.31V599.941H1757.41L1760.31 592.19Z" fill="#FFFDFD"/>
<path d="M1225.68 273C1226.84 273 1227.96 273.464 1228.78 274.289C1229.6 275.114 1230.06 276.233 1230.06 277.4C1230.06 278.567 1229.6 279.686 1228.78 280.511C1227.96 281.336 1226.84 281.8 1225.68 281.8C1224.51 281.8 1223.4 281.336 1222.58 280.511C1221.75 279.686 1221.29 278.567 1221.29 277.4C1221.29 276.233 1221.75 275.114 1222.58 274.289C1223.4 273.464 1224.51 273 1225.68 273ZM1222.39 284H1228.97C1230.13 284 1231.25 284.464 1232.07 285.289C1232.89 286.114 1233.35 287.233 1233.35 288.4V300.5H1230.06V317H1221.29V300.5H1218V288.4C1218 287.233 1218.46 286.114 1219.28 285.289C1220.11 284.464 1221.22 284 1222.39 284ZM1241.03 295C1241.03 293.833 1241.49 292.714 1242.32 291.889C1243.14 291.064 1244.26 290.6 1245.42 290.6C1246.58 290.6 1247.7 291.064 1248.52 291.889C1249.34 292.714 1249.81 293.833 1249.81 295C1249.81 296.167 1249.34 297.286 1248.52 298.111C1247.7 298.936 1246.58 299.4 1245.42 299.4C1244.26 299.4 1243.14 298.936 1242.32 298.111C1241.49 297.286 1241.03 296.167 1241.03 295ZM1242.13 301.6H1248.71L1252 310.4H1248.71V317H1242.13V310.4H1238.84L1242.13 301.6Z" fill="#FFFDFD"/>
<path d="M931.677 460C932.841 460 933.957 460.464 934.78 461.289C935.602 462.114 936.065 463.233 936.065 464.4C936.065 465.567 935.602 466.686 934.78 467.511C933.957 468.336 932.841 468.8 931.677 468.8C930.514 468.8 929.398 468.336 928.575 467.511C927.753 466.686 927.29 465.567 927.29 464.4C927.29 463.233 927.753 462.114 928.575 461.289C929.398 460.464 930.514 460 931.677 460ZM928.387 471H934.968C936.131 471 937.247 471.464 938.07 472.289C938.893 473.114 939.355 474.233 939.355 475.4V487.5H936.065V504H927.29V487.5H924V475.4C924 474.233 924.462 473.114 925.285 472.289C926.108 471.464 927.224 471 928.387 471ZM947.032 482C947.032 480.833 947.494 479.714 948.317 478.889C949.14 478.064 950.256 477.6 951.419 477.6C952.583 477.6 953.699 478.064 954.522 478.889C955.344 479.714 955.806 480.833 955.806 482C955.806 483.167 955.344 484.286 954.522 485.111C953.699 485.936 952.583 486.4 951.419 486.4C950.256 486.4 949.14 485.936 948.317 485.111C947.494 484.286 947.032 483.167 947.032 482ZM948.129 488.6H954.71L958 497.4H954.71V504H948.129V497.4H944.839L948.129 488.6Z" fill="#FFFDFD"/>
<path d="M913.273 586C914.719 586 916.107 586.575 917.13 587.598C918.153 588.621 918.727 590.008 918.727 591.455C918.727 592.901 918.153 594.289 917.13 595.311C916.107 596.334 914.719 596.909 913.273 596.909C911.826 596.909 910.439 596.334 909.416 595.311C908.393 594.289 907.818 592.901 907.818 591.455C907.818 590.008 908.393 588.621 909.416 587.598C910.439 586.575 911.826 586 913.273 586ZM909.182 640.545V624.182H901L908.091 603.455C908.909 601.273 910.818 599.636 913.273 599.636C915.727 599.636 917.909 601.273 918.455 603.455L925.545 624.182H917.364V640.545H909.182ZM932.364 613.273C932.364 611.826 932.938 610.439 933.961 609.416C934.984 608.393 936.372 607.818 937.818 607.818C939.265 607.818 940.652 608.393 941.675 609.416C942.698 610.439 943.273 611.826 943.273 613.273C943.273 614.719 942.698 616.107 941.675 617.13C940.652 618.153 939.265 618.727 937.818 618.727C936.372 618.727 934.984 618.153 933.961 617.13C932.938 616.107 932.364 614.719 932.364 613.273ZM933.727 621.455H941.909L946 632.364H941.909V640.545H933.727V632.364H929.636L933.727 621.455Z" fill="#FFFDFD"/>
<path d="M1193.27 307C1194.37 307 1195.41 307.442 1196.19 308.23C1196.96 309.018 1197.39 310.086 1197.39 311.2C1197.39 312.314 1196.96 313.382 1196.19 314.17C1195.41 314.958 1194.37 315.4 1193.27 315.4C1192.18 315.4 1191.13 314.958 1190.36 314.17C1189.59 313.382 1189.15 312.314 1189.15 311.2C1189.15 310.086 1189.59 309.018 1190.36 308.23C1191.13 307.442 1192.18 307 1193.27 307ZM1190.18 349V336.4H1184L1189.36 320.44C1189.98 318.76 1191.42 317.5 1193.27 317.5C1195.13 317.5 1196.78 318.76 1197.19 320.44L1202.55 336.4H1196.36V349H1190.18ZM1207.7 328C1207.7 326.886 1208.13 325.818 1208.9 325.03C1209.68 324.242 1210.73 323.8 1211.82 323.8C1212.91 323.8 1213.96 324.242 1214.73 325.03C1215.51 325.818 1215.94 326.886 1215.94 328C1215.94 329.114 1215.51 330.182 1214.73 330.97C1213.96 331.757 1212.91 332.2 1211.82 332.2C1210.73 332.2 1209.68 331.757 1208.9 330.97C1208.13 330.182 1207.7 329.114 1207.7 328ZM1208.73 334.3H1214.91L1218 342.7H1214.91V349H1208.73V342.7H1205.64L1208.73 334.3Z" fill="#FFFDFD"/>
<path d="M1387.27 182C1388.37 182 1389.41 182.442 1390.19 183.23C1390.96 184.018 1391.39 185.086 1391.39 186.2C1391.39 187.314 1390.96 188.382 1390.19 189.17C1389.41 189.958 1388.37 190.4 1387.27 190.4C1386.18 190.4 1385.13 189.958 1384.36 189.17C1383.59 188.382 1383.15 187.314 1383.15 186.2C1383.15 185.086 1383.59 184.018 1384.36 183.23C1385.13 182.442 1386.18 182 1387.27 182ZM1384.18 224V211.4H1378L1383.36 195.44C1383.98 193.76 1385.42 192.5 1387.27 192.5C1389.13 192.5 1390.78 193.76 1391.19 195.44L1396.55 211.4H1390.36V224H1384.18ZM1401.7 203C1401.7 201.886 1402.13 200.818 1402.9 200.03C1403.68 199.242 1404.73 198.8 1405.82 198.8C1406.91 198.8 1407.96 199.242 1408.73 200.03C1409.51 200.818 1409.94 201.886 1409.94 203C1409.94 204.114 1409.51 205.182 1408.73 205.97C1407.96 206.757 1406.91 207.2 1405.82 207.2C1404.73 207.2 1403.68 206.757 1402.9 205.97C1402.13 205.182 1401.7 204.114 1401.7 203ZM1402.73 209.3H1408.91L1412 217.7H1408.91V224H1402.73V217.7H1399.64L1402.73 209.3Z" fill="#FFFDFD"/>
<path d="M1255.68 557C1256.84 557 1257.96 557.464 1258.78 558.289C1259.6 559.114 1260.06 560.233 1260.06 561.4C1260.06 562.567 1259.6 563.686 1258.78 564.511C1257.96 565.336 1256.84 565.8 1255.68 565.8C1254.51 565.8 1253.4 565.336 1252.58 564.511C1251.75 563.686 1251.29 562.567 1251.29 561.4C1251.29 560.233 1251.75 559.114 1252.58 558.289C1253.4 557.464 1254.51 557 1255.68 557ZM1252.39 568H1258.97C1260.13 568 1261.25 568.464 1262.07 569.289C1262.89 570.114 1263.35 571.233 1263.35 572.4V584.5H1260.06V601H1251.29V584.5H1248V572.4C1248 571.233 1248.46 570.114 1249.28 569.289C1250.11 568.464 1251.22 568 1252.39 568Z" fill="#FFFDFD"/>
<path d="M560.677 890C561.841 890 562.957 890.464 563.78 891.289C564.602 892.114 565.065 893.233 565.065 894.4C565.065 895.567 564.602 896.686 563.78 897.511C562.957 898.336 561.841 898.8 560.677 898.8C559.514 898.8 558.398 898.336 557.575 897.511C556.753 896.686 556.29 895.567 556.29 894.4C556.29 893.233 556.753 892.114 557.575 891.289C558.398 890.464 559.514 890 560.677 890ZM557.387 901H563.968C565.131 901 566.247 901.464 567.07 902.289C567.893 903.114 568.355 904.233 568.355 905.4V917.5H565.065V934H556.29V917.5H553V905.4C553 904.233 553.462 903.114 554.285 902.289C555.108 901.464 556.224 901 557.387 901Z" fill="#FFFDFD"/>
<path d="M1531.68 386C1532.84 386 1533.96 386.464 1534.78 387.289C1535.6 388.114 1536.06 389.233 1536.06 390.4C1536.06 391.567 1535.6 392.686 1534.78 393.511C1533.96 394.336 1532.84 394.8 1531.68 394.8C1530.51 394.8 1529.4 394.336 1528.58 393.511C1527.75 392.686 1527.29 391.567 1527.29 390.4C1527.29 389.233 1527.75 388.114 1528.58 387.289C1529.4 386.464 1530.51 386 1531.68 386ZM1528.39 397H1534.97C1536.13 397 1537.25 397.464 1538.07 398.289C1538.89 399.114 1539.35 400.233 1539.35 401.4V413.5H1536.06V430H1527.29V413.5H1524V401.4C1524 400.233 1524.46 399.114 1525.28 398.289C1526.11 397.464 1527.22 397 1528.39 397Z" fill="#FFFDFD"/>
<path d="M1408.32 357.502C1409.49 357.502 1410.6 357.966 1411.42 358.791C1412.25 359.616 1412.71 360.735 1412.71 361.902C1412.71 363.069 1412.25 364.188 1411.42 365.013C1410.6 365.838 1409.49 366.302 1408.32 366.302C1407.16 366.302 1406.04 365.838 1405.22 365.013C1404.4 364.188 1403.93 363.069 1403.93 361.902C1403.93 360.735 1404.4 359.616 1405.22 358.791C1406.04 357.966 1407.16 357.502 1408.32 357.502ZM1405.03 368.502H1411.61C1412.78 368.502 1413.89 368.966 1414.71 369.791C1415.54 370.616 1416 371.735 1416 372.902V385.002H1412.71V401.502H1403.93V385.002H1400.64V372.902C1400.64 371.735 1401.11 370.616 1401.93 369.791C1402.75 368.966 1403.87 368.502 1405.03 368.502Z" fill="#FFFDFD"/>
<path d="M1661.68 345C1662.84 345 1663.96 345.464 1664.78 346.289C1665.6 347.114 1666.06 348.233 1666.06 349.4C1666.06 350.567 1665.6 351.686 1664.78 352.511C1663.96 353.336 1662.84 353.8 1661.68 353.8C1660.51 353.8 1659.4 353.336 1658.58 352.511C1657.75 351.686 1657.29 350.567 1657.29 349.4C1657.29 348.233 1657.75 347.114 1658.58 346.289C1659.4 345.464 1660.51 345 1661.68 345ZM1658.39 356H1664.97C1666.13 356 1667.25 356.464 1668.07 357.289C1668.89 358.114 1669.35 359.233 1669.35 360.4V372.5H1666.06V389H1657.29V372.5H1654V360.4C1654 359.233 1654.46 358.114 1655.28 357.289C1656.11 356.464 1657.22 356 1658.39 356Z" fill="#FFFDFD"/>
<path d="M1636.68 362C1637.84 362 1638.96 362.464 1639.78 363.289C1640.6 364.114 1641.06 365.233 1641.06 366.4C1641.06 367.567 1640.6 368.686 1639.78 369.511C1638.96 370.336 1637.84 370.8 1636.68 370.8C1635.51 370.8 1634.4 370.336 1633.58 369.511C1632.75 368.686 1632.29 367.567 1632.29 366.4C1632.29 365.233 1632.75 364.114 1633.58 363.289C1634.4 362.464 1635.51 362 1636.68 362ZM1633.39 373H1639.97C1641.13 373 1642.25 373.464 1643.07 374.289C1643.89 375.114 1644.35 376.233 1644.35 377.4V389.5H1641.06V406H1632.29V389.5H1629V377.4C1629 376.233 1629.46 375.114 1630.28 374.289C1631.11 373.464 1632.22 373 1633.39 373Z" fill="#FFFDFD"/>
<path d="M739.677 993C740.841 993 741.957 993.464 742.78 994.289C743.602 995.114 744.065 996.233 744.065 997.4C744.065 998.567 743.602 999.686 742.78 1000.51C741.957 1001.34 740.841 1001.8 739.677 1001.8C738.514 1001.8 737.398 1001.34 736.575 1000.51C735.753 999.686 735.29 998.567 735.29 997.4C735.29 996.233 735.753 995.114 736.575 994.289C737.398 993.464 738.514 993 739.677 993ZM736.387 1004H742.968C744.131 1004 745.247 1004.46 746.07 1005.29C746.893 1006.11 747.355 1007.23 747.355 1008.4V1020.5H744.065V1037H735.29V1020.5H732V1008.4C732 1007.23 732.462 1006.11 733.285 1005.29C734.108 1004.46 735.224 1004 736.387 1004Z" fill="#FFFDFD"/>
<path d="M1031.68 729C1032.84 729 1033.96 729.464 1034.78 730.289C1035.6 731.114 1036.06 732.233 1036.06 733.4C1036.06 734.567 1035.6 735.686 1034.78 736.511C1033.96 737.336 1032.84 737.8 1031.68 737.8C1030.51 737.8 1029.4 737.336 1028.58 736.511C1027.75 735.686 1027.29 734.567 1027.29 733.4C1027.29 732.233 1027.75 731.114 1028.58 730.289C1029.4 729.464 1030.51 729 1031.68 729ZM1028.39 740H1034.97C1036.13 740 1037.25 740.464 1038.07 741.289C1038.89 742.114 1039.35 743.233 1039.35 744.4V756.5H1036.06V773H1027.29V756.5H1024V744.4C1024 743.233 1024.46 742.114 1025.28 741.289C1026.11 740.464 1027.22 740 1028.39 740Z" fill="#FFFDFD"/>
<path d="M861.677 569C862.841 569 863.957 569.464 864.78 570.289C865.602 571.114 866.065 572.233 866.065 573.4C866.065 574.567 865.602 575.686 864.78 576.511C863.957 577.336 862.841 577.8 861.677 577.8C860.514 577.8 859.398 577.336 858.575 576.511C857.753 575.686 857.29 574.567 857.29 573.4C857.29 572.233 857.753 571.114 858.575 570.289C859.398 569.464 860.514 569 861.677 569ZM858.387 580H864.968C866.131 580 867.247 580.464 868.07 581.289C868.893 582.114 869.355 583.233 869.355 584.4V596.5H866.065V613H857.29V596.5H854V584.4C854 583.233 854.462 582.114 855.285 581.289C856.108 580.464 857.224 580 858.387 580Z" fill="#FFFDFD"/>
<path d="M1415.68 705C1416.84 705 1417.96 705.464 1418.78 706.289C1419.6 707.114 1420.06 708.233 1420.06 709.4C1420.06 710.567 1419.6 711.686 1418.78 712.511C1417.96 713.336 1416.84 713.8 1415.68 713.8C1414.51 713.8 1413.4 713.336 1412.58 712.511C1411.75 711.686 1411.29 710.567 1411.29 709.4C1411.29 708.233 1411.75 707.114 1412.58 706.289C1413.4 705.464 1414.51 705 1415.68 705ZM1412.39 716H1418.97C1420.13 716 1421.25 716.464 1422.07 717.289C1422.89 718.114 1423.35 719.233 1423.35 720.4V732.5H1420.06V749H1411.29V732.5H1408V720.4C1408 719.233 1408.46 718.114 1409.28 717.289C1410.11 716.464 1411.22 716 1412.39 716Z" fill="#FFFDFD"/>
<path d="M1423.68 161C1424.84 161 1425.96 161.464 1426.78 162.289C1427.6 163.114 1428.06 164.233 1428.06 165.4C1428.06 166.567 1427.6 167.686 1426.78 168.511C1425.96 169.336 1424.84 169.8 1423.68 169.8C1422.51 169.8 1421.4 169.336 1420.58 168.511C1419.75 167.686 1419.29 166.567 1419.29 165.4C1419.29 164.233 1419.75 163.114 1420.58 162.289C1421.4 161.464 1422.51 161 1423.68 161ZM1420.39 172H1426.97C1428.13 172 1429.25 172.464 1430.07 173.289C1430.89 174.114 1431.35 175.233 1431.35 176.4V188.5H1428.06V205H1419.29V188.5H1416V176.4C1416 175.233 1416.46 174.114 1417.28 173.289C1418.11 172.464 1419.22 172 1420.39 172Z" fill="#FFFDFD"/>
<path d="M1149.68 328C1150.84 328 1151.96 328.464 1152.78 329.289C1153.6 330.114 1154.06 331.233 1154.06 332.4C1154.06 333.567 1153.6 334.686 1152.78 335.511C1151.96 336.336 1150.84 336.8 1149.68 336.8C1148.51 336.8 1147.4 336.336 1146.58 335.511C1145.75 334.686 1145.29 333.567 1145.29 332.4C1145.29 331.233 1145.75 330.114 1146.58 329.289C1147.4 328.464 1148.51 328 1149.68 328ZM1146.39 339H1152.97C1154.13 339 1155.25 339.464 1156.07 340.289C1156.89 341.114 1157.35 342.233 1157.35 343.4V355.5H1154.06V372H1145.29V355.5H1142V343.4C1142 342.233 1142.46 341.114 1143.28 340.289C1144.11 339.464 1145.22 339 1146.39 339Z" fill="#FFFDFD"/>
<path d="M1172.68 322C1173.84 322 1174.96 322.464 1175.78 323.289C1176.6 324.114 1177.06 325.233 1177.06 326.4C1177.06 327.567 1176.6 328.686 1175.78 329.511C1174.96 330.336 1173.84 330.8 1172.68 330.8C1171.51 330.8 1170.4 330.336 1169.58 329.511C1168.75 328.686 1168.29 327.567 1168.29 326.4C1168.29 325.233 1168.75 324.114 1169.58 323.289C1170.4 322.464 1171.51 322 1172.68 322ZM1169.39 333H1175.97C1177.13 333 1178.25 333.464 1179.07 334.289C1179.89 335.114 1180.35 336.233 1180.35 337.4V349.5H1177.06V366H1168.29V349.5H1165V337.4C1165 336.233 1165.46 335.114 1166.28 334.289C1167.11 333.464 1168.22 333 1169.39 333Z" fill="#FFFDFD"/>
<path d="M1926.68 463C1927.84 463 1928.96 463.464 1929.78 464.289C1930.6 465.114 1931.06 466.233 1931.06 467.4C1931.06 468.567 1930.6 469.686 1929.78 470.511C1928.96 471.336 1927.84 471.8 1926.68 471.8C1925.51 471.8 1924.4 471.336 1923.58 470.511C1922.75 469.686 1922.29 468.567 1922.29 467.4C1922.29 466.233 1922.75 465.114 1923.58 464.289C1924.4 463.464 1925.51 463 1926.68 463ZM1923.39 474H1929.97C1931.13 474 1932.25 474.464 1933.07 475.289C1933.89 476.114 1934.35 477.233 1934.35 478.4V490.5H1931.06V507H1922.29V490.5H1919V478.4C1919 477.233 1919.46 476.114 1920.28 475.289C1921.11 474.464 1922.22 474 1923.39 474Z" fill="#FFFDFD"/>
<path d="M2057.68 517C2058.84 517 2059.96 517.464 2060.78 518.289C2061.6 519.114 2062.06 520.233 2062.06 521.4C2062.06 522.567 2061.6 523.686 2060.78 524.511C2059.96 525.336 2058.84 525.8 2057.68 525.8C2056.51 525.8 2055.4 525.336 2054.58 524.511C2053.75 523.686 2053.29 522.567 2053.29 521.4C2053.29 520.233 2053.75 519.114 2054.58 518.289C2055.4 517.464 2056.51 517 2057.68 517ZM2054.39 528H2060.97C2062.13 528 2063.25 528.464 2064.07 529.289C2064.89 530.114 2065.35 531.233 2065.35 532.4V544.5H2062.06V561H2053.29V544.5H2050V532.4C2050 531.233 2050.46 530.114 2051.28 529.289C2052.11 528.464 2053.22 528 2054.39 528Z" fill="#FFFDFD"/>
<path d="M1432.68 729C1433.84 729 1434.96 729.464 1435.78 730.289C1436.6 731.114 1437.06 732.233 1437.06 733.4C1437.06 734.567 1436.6 735.686 1435.78 736.511C1434.96 737.336 1433.84 737.8 1432.68 737.8C1431.51 737.8 1430.4 737.336 1429.58 736.511C1428.75 735.686 1428.29 734.567 1428.29 733.4C1428.29 732.233 1428.75 731.114 1429.58 730.289C1430.4 729.464 1431.51 729 1432.68 729ZM1429.39 740H1435.97C1437.13 740 1438.25 740.464 1439.07 741.289C1439.89 742.114 1440.35 743.233 1440.35 744.4V756.5H1437.06V773H1428.29V756.5H1425V744.4C1425 743.233 1425.46 742.114 1426.28 741.289C1427.11 740.464 1428.22 740 1429.39 740Z" fill="#FFFDFD"/>
<path d="M1267.68 258C1268.84 258 1269.96 258.464 1270.78 259.289C1271.6 260.114 1272.06 261.233 1272.06 262.4C1272.06 263.567 1271.6 264.686 1270.78 265.511C1269.96 266.336 1268.84 266.8 1267.68 266.8C1266.51 266.8 1265.4 266.336 1264.58 265.511C1263.75 264.686 1263.29 263.567 1263.29 262.4C1263.29 261.233 1263.75 260.114 1264.58 259.289C1265.4 258.464 1266.51 258 1267.68 258ZM1264.39 269H1270.97C1272.13 269 1273.25 269.464 1274.07 270.289C1274.89 271.114 1275.35 272.233 1275.35 273.4V285.5H1272.06V302H1263.29V285.5H1260V273.4C1260 272.233 1260.46 271.114 1261.28 270.289C1262.11 269.464 1263.22 269 1264.39 269Z" fill="#FFFDFD"/>
<path d="M1355.68 203C1356.84 203 1357.96 203.464 1358.78 204.289C1359.6 205.114 1360.06 206.233 1360.06 207.4C1360.06 208.567 1359.6 209.686 1358.78 210.511C1357.96 211.336 1356.84 211.8 1355.68 211.8C1354.51 211.8 1353.4 211.336 1352.58 210.511C1351.75 209.686 1351.29 208.567 1351.29 207.4C1351.29 206.233 1351.75 205.114 1352.58 204.289C1353.4 203.464 1354.51 203 1355.68 203ZM1352.39 214H1358.97C1360.13 214 1361.25 214.464 1362.07 215.289C1362.89 216.114 1363.35 217.233 1363.35 218.4V230.5H1360.06V247H1351.29V230.5H1348V218.4C1348 217.233 1348.46 216.114 1349.28 215.289C1350.11 214.464 1351.22 214 1352.39 214Z" fill="#FFFDFD"/>
<path d="M903.677 489C904.841 489 905.957 489.464 906.78 490.289C907.602 491.114 908.065 492.233 908.065 493.4C908.065 494.567 907.602 495.686 906.78 496.511C905.957 497.336 904.841 497.8 903.677 497.8C902.514 497.8 901.398 497.336 900.575 496.511C899.753 495.686 899.29 494.567 899.29 493.4C899.29 492.233 899.753 491.114 900.575 490.289C901.398 489.464 902.514 489 903.677 489ZM900.387 500H906.968C908.131 500 909.247 500.464 910.07 501.289C910.893 502.114 911.355 503.233 911.355 504.4V516.5H908.065V533H899.29V516.5H896V504.4C896 503.233 896.462 502.114 897.285 501.289C898.108 500.464 899.224 500 900.387 500Z" fill="#FFFDFD"/>
<path d="M1263.68 716C1264.84 716 1265.96 716.464 1266.78 717.289C1267.6 718.114 1268.06 719.233 1268.06 720.4C1268.06 721.567 1267.6 722.686 1266.78 723.511C1265.96 724.336 1264.84 724.8 1263.68 724.8C1262.51 724.8 1261.4 724.336 1260.58 723.511C1259.75 722.686 1259.29 721.567 1259.29 720.4C1259.29 719.233 1259.75 718.114 1260.58 717.289C1261.4 716.464 1262.51 716 1263.68 716ZM1260.39 727H1266.97C1268.13 727 1269.25 727.464 1270.07 728.289C1270.89 729.114 1271.35 730.233 1271.35 731.4V743.5H1268.06V760H1259.29V743.5H1256V731.4C1256 730.233 1256.46 729.114 1257.28 728.289C1258.11 727.464 1259.22 727 1260.39 727Z" fill="#FFFDFD"/>
<path d="M1437.27 656.728C1438.72 656.728 1440.11 657.302 1441.13 658.325C1442.15 659.348 1442.73 660.735 1442.73 662.182C1442.73 663.629 1442.15 665.016 1441.13 666.039C1440.11 667.062 1438.72 667.637 1437.27 667.637C1435.83 667.637 1434.44 667.062 1433.42 666.039C1432.39 665.016 1431.82 663.629 1431.82 662.182C1431.82 660.735 1432.39 659.348 1433.42 658.325C1434.44 657.302 1435.83 656.728 1437.27 656.728ZM1433.18 711.273V694.909H1425L1432.09 674.182C1432.91 672 1434.82 670.364 1437.27 670.364C1439.73 670.364 1441.91 672 1442.45 674.182L1449.55 694.909H1441.36V711.273H1433.18Z" fill="#FFFDFD"/>
<path d="M767.273 977C768.719 977 770.107 977.575 771.13 978.598C772.153 979.621 772.727 981.008 772.727 982.455C772.727 983.901 772.153 985.289 771.13 986.311C770.107 987.334 768.719 987.909 767.273 987.909C765.826 987.909 764.439 987.334 763.416 986.311C762.393 985.289 761.818 983.901 761.818 982.455C761.818 981.008 762.393 979.621 763.416 978.598C764.439 977.575 765.826 977 767.273 977ZM763.182 1031.55V1015.18H755L762.091 994.455C762.909 992.273 764.818 990.636 767.273 990.636C769.727 990.636 771.909 992.273 772.455 994.455L779.545 1015.18H771.364V1031.55H763.182Z" fill="#FFFDFD"/>
<path d="M783.273 825C784.719 825 786.107 825.575 787.13 826.598C788.153 827.621 788.727 829.008 788.727 830.455C788.727 831.901 788.153 833.289 787.13 834.311C786.107 835.334 784.719 835.909 783.273 835.909C781.826 835.909 780.439 835.334 779.416 834.311C778.393 833.289 777.818 831.901 777.818 830.455C777.818 829.008 778.393 827.621 779.416 826.598C780.439 825.575 781.826 825 783.273 825ZM779.182 879.545V863.182H771L778.091 842.455C778.909 840.273 780.818 838.636 783.273 838.636C785.727 838.636 787.909 840.273 788.455 842.455L795.545 863.182H787.364V879.545H779.182Z" fill="#FFFDFD"/>
<path d="M989.273 694C990.719 694 992.107 694.575 993.13 695.598C994.153 696.621 994.727 698.008 994.727 699.455C994.727 700.901 994.153 702.289 993.13 703.311C992.107 704.334 990.719 704.909 989.273 704.909C987.826 704.909 986.439 704.334 985.416 703.311C984.393 702.289 983.818 700.901 983.818 699.455C983.818 698.008 984.393 696.621 985.416 695.598C986.439 694.575 987.826 694 989.273 694ZM985.182 748.545V732.182H977L984.091 711.455C984.909 709.273 986.818 707.636 989.273 707.636C991.727 707.636 993.909 709.273 994.455 711.455L1001.55 732.182H993.364V748.545H985.182Z" fill="#FFFDFD"/>
<path d="M970.273 430C971.719 430 973.107 430.575 974.13 431.598C975.153 432.621 975.727 434.008 975.727 435.455C975.727 436.901 975.153 438.289 974.13 439.311C973.107 440.334 971.719 440.909 970.273 440.909C968.826 440.909 967.439 440.334 966.416 439.311C965.393 438.289 964.818 436.901 964.818 435.455C964.818 434.008 965.393 432.621 966.416 431.598C967.439 430.575 968.826 430 970.273 430ZM966.182 484.545V468.182H958L965.091 447.455C965.909 445.273 967.818 443.636 970.273 443.636C972.727 443.636 974.909 445.273 975.455 447.455L982.545 468.182H974.364V484.545H966.182Z" fill="#FFFDFD"/>
<path d="M1032.27 391C1033.72 391 1035.11 391.575 1036.13 392.598C1037.15 393.621 1037.73 395.008 1037.73 396.455C1037.73 397.901 1037.15 399.289 1036.13 400.311C1035.11 401.334 1033.72 401.909 1032.27 401.909C1030.83 401.909 1029.44 401.334 1028.42 400.311C1027.39 399.289 1026.82 397.901 1026.82 396.455C1026.82 395.008 1027.39 393.621 1028.42 392.598C1029.44 391.575 1030.83 391 1032.27 391ZM1028.18 445.545V429.182H1020L1027.09 408.455C1027.91 406.273 1029.82 404.636 1032.27 404.636C1034.73 404.636 1036.91 406.273 1037.45 408.455L1044.55 429.182H1036.36V445.545H1028.18Z" fill="#FFFDFD"/>
<path d="M1062.27 374C1063.72 374 1065.11 374.575 1066.13 375.598C1067.15 376.621 1067.73 378.008 1067.73 379.455C1067.73 380.901 1067.15 382.289 1066.13 383.311C1065.11 384.334 1063.72 384.909 1062.27 384.909C1060.83 384.909 1059.44 384.334 1058.42 383.311C1057.39 382.289 1056.82 380.901 1056.82 379.455C1056.82 378.008 1057.39 376.621 1058.42 375.598C1059.44 374.575 1060.83 374 1062.27 374ZM1058.18 428.545V412.182H1050L1057.09 391.455C1057.91 389.273 1059.82 387.636 1062.27 387.636C1064.73 387.636 1066.91 389.273 1067.45 391.455L1074.55 412.182H1066.36V428.545H1058.18Z" fill="#FFFDFD"/>
<path d="M1160.27 890C1161.72 890 1163.11 890.575 1164.13 891.598C1165.15 892.621 1165.73 894.008 1165.73 895.455C1165.73 896.901 1165.15 898.289 1164.13 899.311C1163.11 900.334 1161.72 900.909 1160.27 900.909C1158.83 900.909 1157.44 900.334 1156.42 899.311C1155.39 898.289 1154.82 896.901 1154.82 895.455C1154.82 894.008 1155.39 892.621 1156.42 891.598C1157.44 890.575 1158.83 890 1160.27 890ZM1156.18 944.545V928.182H1148L1155.09 907.455C1155.91 905.273 1157.82 903.636 1160.27 903.636C1162.73 903.636 1164.91 905.273 1165.45 907.455L1172.55 928.182H1164.36V944.545H1156.18Z" fill="#FFFDFD"/>
<path d="M1507.27 401C1508.72 401 1510.11 401.575 1511.13 402.598C1512.15 403.621 1512.73 405.008 1512.73 406.455C1512.73 407.901 1512.15 409.289 1511.13 410.311C1510.11 411.334 1508.72 411.909 1507.27 411.909C1505.83 411.909 1504.44 411.334 1503.42 410.311C1502.39 409.289 1501.82 407.901 1501.82 406.455C1501.82 405.008 1502.39 403.621 1503.42 402.598C1504.44 401.575 1505.83 401 1507.27 401ZM1503.18 455.545V439.182H1495L1502.09 418.455C1502.91 416.273 1504.82 414.636 1507.27 414.636C1509.73 414.636 1511.91 416.273 1512.45 418.455L1519.55 439.182H1511.36V455.545H1503.18Z" fill="#FFFDFD"/>
<path d="M1494.27 218C1495.72 218 1497.11 218.575 1498.13 219.598C1499.15 220.621 1499.73 222.008 1499.73 223.455C1499.73 224.901 1499.15 226.289 1498.13 227.311C1497.11 228.334 1495.72 228.909 1494.27 228.909C1492.83 228.909 1491.44 228.334 1490.42 227.311C1489.39 226.289 1488.82 224.901 1488.82 223.455C1488.82 222.008 1489.39 220.621 1490.42 219.598C1491.44 218.575 1492.83 218 1494.27 218ZM1490.18 272.545V256.182H1482L1489.09 235.455C1489.91 233.273 1491.82 231.636 1494.27 231.636C1496.73 231.636 1498.91 233.273 1499.45 235.455L1506.55 256.182H1498.36V272.545H1490.18Z" fill="#FFFDFD"/>
<path d="M2091.27 577C2092.72 577 2094.11 577.575 2095.13 578.598C2096.15 579.621 2096.73 581.008 2096.73 582.455C2096.73 583.901 2096.15 585.289 2095.13 586.311C2094.11 587.334 2092.72 587.909 2091.27 587.909C2089.83 587.909 2088.44 587.334 2087.42 586.311C2086.39 585.289 2085.82 583.901 2085.82 582.455C2085.82 581.008 2086.39 579.621 2087.42 578.598C2088.44 577.575 2089.83 577 2091.27 577ZM2087.18 631.545V615.182H2079L2086.09 594.455C2086.91 592.273 2088.82 590.636 2091.27 590.636C2093.73 590.636 2095.91 592.273 2096.45 594.455L2103.55 615.182H2095.36V631.545H2087.18ZM2110.36 604.273C2110.36 602.826 2110.94 601.439 2111.96 600.416C2112.98 599.393 2114.37 598.818 2115.82 598.818C2117.26 598.818 2118.65 599.393 2119.68 600.416C2120.7 601.439 2121.27 602.826 2121.27 604.273C2121.27 605.719 2120.7 607.107 2119.68 608.13C2118.65 609.153 2117.26 609.727 2115.82 609.727C2114.37 609.727 2112.98 609.153 2111.96 608.13C2110.94 607.107 2110.36 605.719 2110.36 604.273ZM2111.73 612.455H2119.91L2124 623.364H2119.91V631.545H2111.73V623.364H2107.64L2111.73 612.455Z" fill="#FFFDFD"/>
<g opacity="0.7">
<mask id="path-101-inside-2_541:1051" fill="white">
<path d="M1282.59 482.474L1212.95 522.676L1134.19 477.201L1203.82 437L1282.59 482.474Z"/>
</mask>
<path d="M1282.59 482.474L1212.95 522.676L1134.19 477.201L1203.82 437L1282.59 482.474Z" fill="#DFDFDF" fill-opacity="0.71"/>
<path d="M1282.59 482.474L1283.09 483.34L1284.59 482.474L1283.09 481.608L1282.59 482.474ZM1212.95 522.676L1212.45 523.542L1212.95 523.83L1213.45 523.542L1212.95 522.676ZM1134.19 477.201L1133.69 476.335L1132.19 477.201L1133.69 478.067L1134.19 477.201ZM1203.82 437L1204.32 436.134L1203.82 435.845L1203.32 436.134L1203.82 437ZM1282.09 481.608L1212.45 521.81L1213.45 523.542L1283.09 483.34L1282.09 481.608ZM1213.45 521.81L1134.69 476.335L1133.69 478.067L1212.45 523.542L1213.45 521.81ZM1134.69 478.067L1204.32 437.866L1203.32 436.134L1133.69 476.335L1134.69 478.067ZM1203.32 437.866L1282.09 483.34L1283.09 481.608L1204.32 436.134L1203.32 437.866Z" fill="#BCBCBC" mask="url(#path-101-inside-2_541:1051)"/>
</g>
<path d="M1144.17 486.718L1136.27 482.157C1136.2 482.115 1136.13 482.108 1136.08 482.138C1136.03 482.167 1136 482.23 1136 482.313L1136 491.435C1136 491.518 1136.03 491.615 1136.08 491.703C1136.13 491.791 1136.2 491.864 1136.27 491.905L1144.17 496.466C1144.21 496.487 1144.24 496.499 1144.28 496.502C1144.31 496.506 1144.34 496.5 1144.36 496.485C1144.39 496.471 1144.41 496.448 1144.42 496.418C1144.44 496.388 1144.44 496.351 1144.44 496.31L1144.44 487.188C1144.44 487.147 1144.44 487.102 1144.42 487.056C1144.41 487.01 1144.39 486.964 1144.36 486.92C1144.34 486.877 1144.31 486.836 1144.28 486.801C1144.24 486.767 1144.21 486.738 1144.17 486.718ZM1137.08 483.868L1143.36 487.497L1143.36 494.755L1137.08 491.126L1137.08 483.868Z" fill="white"/>
<path d="M1146.3 494.558L1145.99 494.379L1145.99 493.417C1145.99 493.408 1145.99 493.397 1145.99 493.386C1145.98 493.375 1145.98 493.364 1145.97 493.354C1145.97 493.344 1145.96 493.334 1145.95 493.326C1145.94 493.318 1145.93 493.311 1145.93 493.306L1145.35 492.975C1145.34 492.97 1145.34 492.967 1145.33 492.966C1145.32 492.965 1145.31 492.967 1145.31 492.97C1145.3 492.974 1145.3 492.979 1145.29 492.986C1145.29 492.993 1145.29 493.002 1145.29 493.012L1145.29 493.973L1144.98 493.794C1144.97 493.788 1144.95 493.785 1144.94 493.786C1144.93 493.788 1144.93 493.793 1144.92 493.802C1144.92 493.811 1144.91 493.823 1144.91 493.837C1144.92 493.851 1144.92 493.866 1144.93 493.881L1145.59 495.336C1145.6 495.348 1145.6 495.361 1145.61 495.371C1145.62 495.382 1145.63 495.391 1145.64 495.396L1145.64 495.396C1145.65 495.402 1145.66 495.405 1145.67 495.405C1145.68 495.405 1145.69 495.402 1145.69 495.395L1146.35 494.705C1146.36 494.698 1146.36 494.687 1146.36 494.674C1146.37 494.661 1146.36 494.646 1146.36 494.631C1146.35 494.616 1146.34 494.601 1146.33 494.588C1146.32 494.575 1146.31 494.565 1146.3 494.558Z" fill="white"/>
<path d="M1144.98 490.324L1145.29 490.503L1145.29 491.465C1145.29 491.506 1145.32 491.556 1145.36 491.576L1145.93 491.908C1145.94 491.913 1145.95 491.915 1145.95 491.916C1145.96 491.917 1145.97 491.916 1145.98 491.912C1145.98 491.909 1145.99 491.903 1145.99 491.896C1145.99 491.889 1145.99 491.88 1145.99 491.871L1145.99 490.909L1146.3 491.088C1146.32 491.095 1146.33 491.098 1146.34 491.097C1146.35 491.095 1146.36 491.09 1146.36 491.081C1146.37 491.072 1146.37 491.06 1146.37 491.046C1146.37 491.032 1146.36 491.016 1146.36 491.001L1145.69 489.547C1145.69 489.534 1145.68 489.522 1145.67 489.511C1145.66 489.501 1145.65 489.492 1145.64 489.486L1145.64 489.486C1145.63 489.48 1145.62 489.477 1145.61 489.477C1145.6 489.478 1145.59 489.481 1145.59 489.487L1144.93 490.177C1144.92 490.184 1144.92 490.195 1144.92 490.208C1144.92 490.221 1144.92 490.236 1144.93 490.251C1144.93 490.266 1144.94 490.281 1144.95 490.294C1144.96 490.307 1144.97 490.317 1144.98 490.324Z" fill="white"/>
<path d="M1138.81 486.878C1139.11 487.048 1139.35 486.91 1139.35 486.57C1139.35 486.23 1139.11 485.816 1138.81 485.646C1138.52 485.476 1138.28 485.614 1138.28 485.954C1138.28 486.294 1138.52 486.708 1138.81 486.878Z" fill="white"/>
<path d="M1139.83 487.626L1139.83 487.623L1137.92 486.52L1137.92 486.522C1137.85 486.484 1137.79 486.477 1137.74 486.504C1137.69 486.531 1137.66 486.589 1137.66 486.665L1137.66 486.665L1137.66 488.41L1137.67 488.412C1137.67 488.48 1137.69 488.56 1137.73 488.633C1137.77 488.706 1137.83 488.766 1137.89 488.8C1137.95 488.835 1138.01 488.84 1138.05 488.816C1138.09 488.792 1138.12 488.739 1138.12 488.671L1138.12 488.671L1138.12 487.453L1138.12 487.453C1138.12 487.432 1138.12 487.416 1138.14 487.409C1138.15 487.402 1138.17 487.404 1138.19 487.415C1138.23 487.437 1138.26 487.49 1138.26 487.535L1138.26 487.535L1138.26 490.73C1138.26 490.77 1138.27 490.813 1138.28 490.858C1138.29 490.902 1138.31 490.947 1138.34 490.989C1138.36 491.031 1138.39 491.07 1138.42 491.104C1138.45 491.137 1138.49 491.165 1138.52 491.185C1138.56 491.205 1138.59 491.216 1138.62 491.219C1138.65 491.223 1138.68 491.217 1138.71 491.203C1138.73 491.189 1138.75 491.167 1138.76 491.137C1138.78 491.108 1138.78 491.073 1138.78 491.033L1138.78 489.424L1138.79 489.425C1138.79 489.403 1138.79 489.386 1138.81 489.378C1138.82 489.37 1138.84 489.372 1138.86 489.383C1138.88 489.394 1138.9 489.414 1138.91 489.438C1138.92 489.461 1138.93 489.487 1138.93 489.509L1138.93 489.51L1138.93 491.119C1138.93 491.199 1138.96 491.29 1139.01 491.374C1139.06 491.457 1139.13 491.525 1139.2 491.565C1139.26 491.604 1139.33 491.611 1139.38 491.585C1139.43 491.558 1139.46 491.5 1139.46 491.422L1139.46 488.227C1139.46 488.216 1139.46 488.206 1139.46 488.198C1139.47 488.189 1139.47 488.183 1139.48 488.178C1139.48 488.174 1139.49 488.173 1139.5 488.173C1139.51 488.174 1139.52 488.177 1139.53 488.183C1139.54 488.188 1139.55 488.196 1139.56 488.206C1139.57 488.215 1139.57 488.226 1139.58 488.238C1139.59 488.25 1139.59 488.263 1139.6 488.275C1139.6 488.287 1139.6 488.299 1139.6 488.31L1139.6 489.529L1139.6 489.53C1139.6 489.599 1139.63 489.678 1139.67 489.751C1139.71 489.824 1139.77 489.884 1139.83 489.919C1139.89 489.953 1139.94 489.959 1139.99 489.934C1140.03 489.91 1140.05 489.858 1140.05 489.789L1140.05 489.789L1140.05 488.044C1140.05 487.972 1140.03 487.89 1139.99 487.813C1139.95 487.736 1139.89 487.669 1139.83 487.626Z" fill="white"/>
<path d="M1141.54 488.452C1141.84 488.622 1142.08 488.484 1142.08 488.144C1142.08 487.804 1141.84 487.39 1141.54 487.22C1141.25 487.05 1141.01 487.188 1141.01 487.528C1141.01 487.868 1141.25 488.282 1141.54 488.452Z" fill="white"/>
<path d="M1142.55 489.202L1142.55 489.199L1140.64 488.095L1140.64 488.097C1140.58 488.059 1140.51 488.053 1140.46 488.079C1140.42 488.106 1140.39 488.164 1140.39 488.24L1140.39 488.24L1140.39 489.986L1140.39 489.987C1140.39 490.056 1140.42 490.135 1140.46 490.208C1140.5 490.281 1140.56 490.341 1140.62 490.375C1140.68 490.41 1140.73 490.415 1140.78 490.391C1140.82 490.367 1140.84 490.315 1140.84 490.246L1140.84 490.246L1140.84 489.028L1140.84 489.028C1140.84 489.007 1140.85 488.992 1140.86 488.984C1140.88 488.977 1140.9 488.979 1140.91 488.99C1140.95 489.012 1140.98 489.065 1140.99 489.11L1140.99 489.111L1140.99 492.306C1140.99 492.386 1141.01 492.479 1141.06 492.564C1141.09 492.606 1141.12 492.645 1141.15 492.679C1141.18 492.712 1141.21 492.74 1141.25 492.76C1141.28 492.78 1141.32 492.792 1141.35 492.795C1141.38 492.798 1141.41 492.792 1141.43 492.778C1141.46 492.764 1141.48 492.742 1141.49 492.713C1141.5 492.683 1141.51 492.648 1141.51 492.608L1141.51 490.999L1141.51 491.001C1141.51 490.978 1141.52 490.961 1141.53 490.953C1141.55 490.946 1141.57 490.947 1141.58 490.959C1141.6 490.97 1141.62 490.989 1141.64 491.013C1141.65 491.036 1141.66 491.062 1141.66 491.084L1141.66 491.085L1141.66 492.694C1141.66 492.774 1141.69 492.865 1141.74 492.949C1141.79 493.032 1141.85 493.101 1141.92 493.14C1141.99 493.179 1142.06 493.187 1142.1 493.16C1142.15 493.133 1142.18 493.075 1142.18 492.997L1142.18 489.803C1142.18 489.791 1142.19 489.781 1142.19 489.773C1142.19 489.764 1142.2 489.758 1142.2 489.754C1142.21 489.749 1142.22 489.748 1142.23 489.748C1142.24 489.749 1142.25 489.752 1142.26 489.758C1142.27 489.764 1142.28 489.771 1142.28 489.781C1142.29 489.79 1142.3 489.801 1142.31 489.813C1142.31 489.825 1142.32 489.838 1142.32 489.85C1142.33 489.862 1142.33 489.875 1142.33 489.885L1142.33 491.104L1142.33 491.105C1142.33 491.174 1142.35 491.254 1142.4 491.326C1142.44 491.399 1142.49 491.46 1142.55 491.494C1142.61 491.528 1142.67 491.534 1142.71 491.51C1142.75 491.485 1142.78 491.433 1142.78 491.364L1142.78 491.365L1142.78 489.619C1142.78 489.547 1142.76 489.465 1142.71 489.388C1142.67 489.311 1142.61 489.244 1142.55 489.202Z" fill="white"/>
<rect width="48.4974" height="60.7255" transform="matrix(0.866025 0.5 -2.20305e-08 1 1148 493.721)" fill="#C4C4C4"/>
<path d="M1148 554.5L1190 530" stroke="white" stroke-width="0.5"/>
<path d="M1190 530.5L1148.5 554.5L1190 578.5V530.5Z" fill="#9B9B9B"/>
<g opacity="0.7">
<path d="M1212 591.626L1134 547.295L1134 478.676L1212 523.007L1212 591.626Z" stroke="white"/>
</g>
<g opacity="0.7">
<mask id="path-114-inside-3_541:1051" fill="white">
<path d="M1353.39 441.474L1283.76 481.676L1205 436.201L1274.63 396L1353.39 441.474Z"/>
</mask>
<path d="M1353.39 441.474L1283.76 481.676L1205 436.201L1274.63 396L1353.39 441.474Z" fill="#DFDFDF" fill-opacity="0.71"/>
<path d="M1353.39 441.474L1353.89 442.34L1355.39 441.474L1353.89 440.608L1353.39 441.474ZM1283.76 481.676L1283.26 482.542L1283.76 482.83L1284.26 482.542L1283.76 481.676ZM1205 436.201L1204.5 435.335L1203 436.201L1204.5 437.067L1205 436.201ZM1274.63 396L1275.13 395.134L1274.63 394.845L1274.13 395.134L1274.63 396ZM1352.89 440.608L1283.26 480.81L1284.26 482.542L1353.89 442.34L1352.89 440.608ZM1284.26 480.81L1205.5 435.335L1204.5 437.067L1283.26 482.542L1284.26 480.81ZM1205.5 437.067L1275.13 396.866L1274.13 395.134L1204.5 435.335L1205.5 437.067ZM1274.13 396.866L1352.89 442.34L1353.89 440.608L1275.13 395.134L1274.13 396.866Z" fill="#BCBCBC" mask="url(#path-114-inside-3_541:1051)"/>
</g>
<rect width="1.1547" height="60.7255" transform="matrix(0.866025 0.5 -2.20305e-08 1 1189 517.672)" fill="#C4C4C4"/>
<rect width="1" height="60.7255" transform="matrix(0.866025 0.5 -2.20305e-08 1 1148 494)" fill="#C4C4C4"/>
<path d="M592.883 724.553C593.119 725.487 592.668 726.291 591.532 726.968C589.251 728.335 586.669 728.206 583.785 726.582C580.954 724.906 580.718 723.408 583.077 722.086C584.266 721.44 585.664 721.183 587.272 721.314L587.495 719.112C586.184 719.041 584.912 719.114 583.68 719.331C582.457 719.553 581.308 719.964 580.233 720.565C578.607 721.483 577.733 722.608 577.611 723.94C577.462 725.308 578.607 726.715 581.045 728.163C583.527 729.556 585.944 730.204 588.295 730.108C590.602 730.038 592.559 729.538 594.167 728.61C595.207 727.989 595.906 727.318 596.265 726.597C596.64 725.885 596.785 725.161 596.697 724.425L592.883 724.553ZM593.328 721.042C594.762 721.869 595.972 722.432 596.959 722.729C597.956 723.022 598.983 723.181 600.04 723.206C600.844 723.236 601.753 723.156 602.767 722.964C603.807 722.797 604.855 722.419 605.913 721.829C606.97 721.198 607.643 720.582 607.931 719.982C608.132 719.684 608.237 719.407 608.246 719.149C608.307 718.892 608.325 718.655 608.299 718.438C608.29 717.807 608.023 717.209 607.499 716.644C606.966 716.084 605.983 715.39 604.549 714.563C603.116 713.736 601.906 713.163 600.918 712.845C599.939 712.542 598.921 712.398 597.864 712.414C597.051 712.358 596.138 712.416 595.124 712.588C594.119 712.774 593.07 713.173 591.978 713.783C590.956 714.394 590.283 714.989 589.959 715.57C589.645 716.165 589.527 716.702 589.605 717.182C589.614 717.772 589.872 718.355 590.379 718.93C590.912 719.51 591.895 720.214 593.328 721.042ZM601.836 716.16C602.762 716.695 603.4 717.114 603.75 717.416C604.108 717.724 604.322 718.055 604.392 718.408C604.453 718.675 604.388 718.98 604.195 719.323C604.012 719.651 603.671 719.959 603.173 720.247C602.71 720.514 602.185 720.706 601.6 720.822C601.023 720.923 600.486 720.966 599.988 720.951C599.411 720.89 598.847 720.761 598.297 720.565C597.755 720.373 597.012 720.005 596.068 719.46C595.115 718.91 594.469 718.476 594.128 718.158C593.805 717.85 593.599 717.535 593.512 717.212C593.442 716.899 593.507 716.584 593.708 716.266C593.918 715.933 594.255 715.633 594.718 715.365C595.216 715.078 595.745 714.878 596.304 714.767C596.872 714.641 597.41 714.608 597.916 714.669C598.511 714.699 599.066 714.813 599.581 715.01C600.114 715.216 600.866 715.6 601.836 716.16ZM614.394 716.75L617.134 715.168L609.033 710.491C608.08 709.941 607.617 709.371 607.643 708.781C607.634 708.201 608.023 707.683 608.81 707.229C609.596 706.775 610.496 706.548 611.51 706.548C612.506 706.548 613.481 706.823 614.433 707.373L622.535 712.05L625.274 710.469L617.173 705.791C616.221 705.241 615.753 704.674 615.771 704.088C615.771 703.503 616.164 702.983 616.95 702.529C617.737 702.075 618.633 701.851 619.638 701.856C620.634 701.856 621.608 702.131 622.561 702.681L630.662 707.358L633.402 705.776L624.357 700.554C622.766 699.676 621.106 699.272 619.375 699.343C617.645 699.424 616.216 699.79 615.089 700.44C613.28 701.465 612.445 702.633 612.585 703.945C611.589 703.914 610.636 703.965 609.727 704.096C608.845 704.252 607.923 704.598 606.961 705.133C605.493 705.98 604.847 706.974 605.021 708.115L604.969 708.145L603.527 707.312L600.787 708.894L614.394 716.75ZM637.203 703.581L639.943 702L626.336 694.144L623.596 695.725L637.203 703.581ZM620.831 694.128L623.57 692.547L620.831 690.965L618.091 692.547L620.831 694.128ZM643.574 699.903L646.314 698.321L638.213 693.644C637.26 693.094 636.793 692.526 636.81 691.941C636.81 691.356 637.203 690.836 637.99 690.382C638.776 689.928 639.672 689.703 640.677 689.708C641.682 689.703 642.661 689.976 643.614 690.526L651.715 695.203L654.455 693.621L645.409 688.399C643.81 687.526 642.145 687.125 640.415 687.196C638.685 687.277 637.256 687.642 636.128 688.293C634.669 689.136 634.027 690.127 634.201 691.268L634.149 691.298L632.707 690.465L629.967 692.047L643.574 699.903ZM664.221 686.333L665.623 687.143C666.532 687.688 666.969 688.273 666.934 688.899C666.882 689.524 666.388 690.107 665.453 690.647C664.937 690.924 664.321 691.124 663.604 691.245C662.923 691.376 662.246 691.449 661.573 691.464L661.14 693.667C663.928 693.773 666.261 693.303 668.14 692.259C669.748 691.331 670.635 690.248 670.801 689.012C670.985 687.796 670.071 686.588 668.061 685.387L654.782 677.72L652.043 679.302L653.485 680.135C651.422 680.084 649.714 680.45 648.359 681.232C647.494 681.752 646.93 682.274 646.668 682.799C646.397 683.349 646.314 683.84 646.419 684.274C646.498 684.734 646.777 685.193 647.258 685.652C647.738 686.121 648.892 686.883 650.719 687.938C652.51 688.972 653.808 689.625 654.612 689.898C655.416 690.18 656.22 690.347 657.024 690.397C657.74 690.438 658.575 690.38 659.528 690.223C660.471 690.092 661.393 689.777 662.294 689.277C663.701 688.424 664.343 687.443 664.221 686.333ZM653.458 686.356C652.401 685.745 651.702 685.301 651.361 685.024C651.011 684.751 650.823 684.476 650.797 684.199C650.736 683.951 650.775 683.651 650.915 683.298C651.072 682.975 651.409 682.655 651.925 682.337C652.475 682.039 653.03 681.845 653.589 681.754C654.184 681.684 654.695 681.666 655.123 681.701C655.604 681.716 656.089 681.82 656.578 682.011C657.041 682.218 657.802 682.627 658.859 683.238C659.899 683.838 660.589 684.267 660.93 684.524C661.262 684.807 661.45 685.092 661.494 685.379C661.555 685.627 661.507 685.912 661.35 686.235C661.236 686.583 660.913 686.911 660.38 687.219C659.847 687.526 659.279 687.713 658.676 687.779C658.099 687.879 657.596 687.912 657.168 687.877C656.67 687.852 656.185 687.738 655.713 687.536C655.25 687.35 654.498 686.956 653.458 686.356ZM674.642 677.168L674.603 679.355C678.002 679.269 680.812 678.586 683.032 677.304C684.648 676.35 685.614 675.359 685.929 674.33C686.27 673.305 685.789 672.407 684.487 671.635C683.359 670.984 682.136 670.616 680.816 670.53C679.436 670.46 677.985 670.803 676.464 671.56L674.039 672.763C673.305 673.106 672.68 673.28 672.165 673.285C671.649 673.32 671.247 673.245 670.959 673.058C670.478 672.781 670.264 672.45 670.316 672.067C670.351 671.693 670.797 671.259 671.653 670.765C672.405 670.331 673.178 670.011 673.974 669.804C674.804 669.607 675.669 669.466 676.569 669.38L676.281 667.261C675.04 667.311 673.829 667.48 672.65 667.768C672.055 667.929 671.465 668.129 670.88 668.366C670.303 668.608 669.7 668.911 669.071 669.274C667.62 670.111 666.772 671.005 666.528 671.953C666.257 672.917 666.812 673.807 668.193 674.625C669.372 675.286 670.653 675.591 672.033 675.541C673.414 675.51 674.729 675.195 675.979 674.594L678.601 673.323C679.125 673.04 679.641 672.869 680.148 672.808C680.637 672.748 681.127 672.859 681.616 673.141C682.167 673.459 682.346 673.85 682.153 674.314C681.961 674.779 681.472 675.238 680.685 675.692C678.929 676.706 676.914 677.198 674.642 677.168ZM683.805 668.805C685.238 669.632 686.449 670.195 687.436 670.492C688.433 670.785 689.459 670.944 690.517 670.969C691.321 671 692.23 670.919 693.243 670.727C694.283 670.561 695.332 670.182 696.39 669.592C697.447 668.961 698.12 668.346 698.408 667.745C698.609 667.447 698.714 667.17 698.723 666.913C698.784 666.655 698.802 666.418 698.775 666.201C698.767 665.57 698.5 664.973 697.976 664.407C697.443 663.847 696.459 663.154 695.026 662.326C693.593 661.499 692.383 660.926 691.395 660.608C690.416 660.305 689.398 660.162 688.341 660.177C687.528 660.121 686.615 660.179 685.601 660.351C684.596 660.538 683.547 660.936 682.455 661.547C681.432 662.157 680.76 662.753 680.436 663.333C680.122 663.928 680.004 664.465 680.082 664.945C680.091 665.535 680.349 666.118 680.856 666.693C681.389 667.273 682.372 667.977 683.805 668.805ZM692.313 663.923C693.239 664.458 693.877 664.877 694.227 665.179C694.585 665.487 694.799 665.818 694.869 666.171C694.93 666.438 694.865 666.744 694.672 667.087C694.489 667.415 694.148 667.722 693.65 668.01C693.187 668.277 692.662 668.469 692.077 668.585C691.5 668.686 690.963 668.729 690.464 668.714C689.888 668.653 689.324 668.525 688.773 668.328C688.232 668.136 687.489 667.768 686.545 667.223C685.592 666.673 684.946 666.239 684.605 665.921C684.281 665.613 684.076 665.298 683.989 664.975C683.919 664.662 683.984 664.347 684.185 664.029C684.395 663.696 684.731 663.396 685.195 663.128C685.693 662.841 686.222 662.642 686.781 662.531C687.349 662.404 687.886 662.372 688.393 662.432C688.987 662.462 689.542 662.576 690.058 662.773C690.591 662.98 691.343 663.363 692.313 663.923ZM697.229 661.055C698.662 661.882 699.872 662.445 700.86 662.742C701.856 663.035 702.883 663.194 703.94 663.219C704.744 663.25 705.653 663.169 706.667 662.977C707.707 662.811 708.756 662.432 709.813 661.842C710.87 661.211 711.543 660.596 711.832 659.995C712.033 659.697 712.138 659.42 712.146 659.163C712.207 658.905 712.225 658.668 712.199 658.451C712.19 657.82 711.923 657.223 711.399 656.657C710.866 656.097 709.883 655.404 708.45 654.576C707.016 653.749 705.806 653.176 704.819 652.858C703.84 652.555 702.822 652.412 701.764 652.427C700.951 652.371 700.038 652.429 699.024 652.601C698.019 652.788 696.971 653.186 695.878 653.797C694.856 654.407 694.183 655.003 693.86 655.583C693.545 656.178 693.427 656.715 693.506 657.195C693.514 657.785 693.772 658.368 694.279 658.943C694.812 659.523 695.795 660.227 697.229 661.055ZM705.736 656.173C706.662 656.708 707.3 657.127 707.65 657.429C708.008 657.737 708.222 658.068 708.292 658.421C708.354 658.688 708.288 658.994 708.096 659.337C707.912 659.665 707.571 659.972 707.073 660.26C706.61 660.527 706.086 660.719 705.5 660.835C704.923 660.936 704.386 660.979 703.888 660.964C703.311 660.903 702.747 660.775 702.197 660.578C701.655 660.386 700.912 660.018 699.968 659.473C699.016 658.923 698.369 658.489 698.028 658.171C697.705 657.863 697.499 657.548 697.412 657.225C697.342 656.912 697.408 656.597 697.609 656.279C697.818 655.946 698.155 655.646 698.618 655.378C699.116 655.091 699.645 654.892 700.204 654.781C700.772 654.654 701.31 654.622 701.817 654.682C702.411 654.712 702.966 654.826 703.481 655.023C704.014 655.23 704.766 655.613 705.736 656.173ZM718.137 656.854L720.877 655.272L712.776 650.595C711.823 650.045 711.355 649.478 711.373 648.892C711.373 648.307 711.766 647.787 712.553 647.333C713.339 646.879 714.235 646.655 715.24 646.66C716.245 646.655 717.224 646.927 718.176 647.477L726.278 652.154L729.017 650.573L719.972 645.35C718.373 644.477 716.708 644.076 714.978 644.147C713.247 644.228 711.819 644.594 710.691 645.244C709.232 646.087 708.589 647.078 708.764 648.219L708.712 648.249L707.27 647.417L704.53 648.998L718.137 656.854Z" fill="white"/>
<path d="M784.308 588.631L784.308 595.833C784.308 596.508 784.108 596.961 783.707 597.192C783.305 597.423 782.812 597.369 782.227 597.031L780.145 595.829L780.145 613.833C780.145 614.158 780.042 614.38 779.836 614.498C779.63 614.617 779.386 614.595 779.104 614.432L777.022 613.23C776.74 613.067 776.496 612.808 776.29 612.451C776.084 612.095 775.981 611.754 775.981 611.429L775.981 603.027L759.327 593.412L759.327 601.814C759.327 602.139 759.224 602.361 759.018 602.479C758.812 602.598 758.568 602.576 758.286 602.413L756.204 601.211C755.923 601.048 755.679 600.789 755.473 600.432C755.267 600.076 755.164 599.735 755.164 599.41L755.164 581.406L753.082 580.204C752.496 579.866 752.003 579.35 751.602 578.656C751.201 577.962 751 577.277 751 576.602L751 569.4C751 568.725 751.201 568.272 751.602 568.041C752.003 567.81 752.496 567.864 753.082 568.202L782.227 585.029C782.812 585.367 783.305 585.883 783.707 586.577C784.108 587.271 784.308 587.956 784.308 588.631ZM759.327 591.012L775.981 600.627L775.981 593.425L759.327 583.81L759.327 591.012ZM753.082 570.602L753.082 573.003L755.164 571.804L753.082 570.602ZM753.082 577.804L757.245 580.208L763.491 576.612L759.327 574.208L753.082 577.804ZM767.654 579.016L761.409 582.612L765.572 585.015L771.818 581.42L767.654 579.016ZM775.981 583.823L769.736 587.419L773.9 589.823L780.145 586.227L775.981 583.823ZM782.227 589.83L778.063 592.227L782.227 594.631L782.227 589.83Z" fill="white"/>
<path d="M815.308 606.631L815.308 613.833C815.308 614.508 815.108 614.961 814.707 615.192C814.305 615.423 813.812 615.369 813.227 615.031L811.145 613.829L811.145 631.833C811.145 632.158 811.042 632.38 810.836 632.498C810.63 632.617 810.386 632.595 810.104 632.432L808.022 631.23C807.74 631.067 807.496 630.808 807.29 630.451C807.084 630.095 806.981 629.754 806.981 629.429L806.981 621.027L790.327 611.412L790.327 619.814C790.327 620.139 790.224 620.361 790.018 620.479C789.812 620.598 789.568 620.576 789.286 620.413L787.204 619.211C786.923 619.048 786.679 618.789 786.473 618.432C786.267 618.076 786.164 617.735 786.164 617.41L786.164 599.406L784.082 598.204C783.496 597.866 783.003 597.35 782.602 596.656C782.201 595.962 782 595.277 782 594.602L782 587.4C782 586.725 782.201 586.272 782.602 586.041C783.003 585.81 783.496 585.864 784.082 586.202L813.227 603.029C813.812 603.367 814.305 603.883 814.707 604.577C815.108 605.271 815.308 605.956 815.308 606.631ZM790.327 609.012L806.981 618.627L806.981 611.425L790.327 601.81L790.327 609.012ZM784.082 588.602L784.082 591.003L786.164 589.804L784.082 588.602ZM784.082 595.804L788.245 598.208L794.491 594.612L790.327 592.208L784.082 595.804ZM798.654 597.016L792.409 600.612L796.572 603.015L802.818 599.42L798.654 597.016ZM806.981 601.823L800.736 605.419L804.9 607.823L811.145 604.227L806.981 601.823ZM813.227 607.83L809.063 610.227L813.227 612.631L813.227 607.83Z" fill="white"/>
<path fill-rule="evenodd" clip-rule="evenodd" d="M1026 1092C1023.24 1092 1021 1094.24 1021 1097V1132C1021 1134.76 1023.24 1137 1026 1137H1061C1063.76 1137 1066 1134.76 1066 1132V1097C1066 1094.24 1063.76 1092 1061 1092H1026ZM1056.84 1122.56V1112.08C1056.84 1111.96 1056.84 1111.83 1056.82 1111.72L1044.39 1119.49L1044.28 1119.55C1044.15 1119.6 1044 1119.63 1043.86 1119.62C1043.72 1119.61 1043.58 1119.56 1043.45 1119.49L1031.02 1111.72C1031.01 1111.83 1031 1111.96 1031 1112.08V1122.56C1031 1123.57 1031.4 1124.54 1032.12 1125.26C1032.83 1125.97 1033.81 1126.37 1034.82 1126.37H1053.03C1054.04 1126.37 1055.01 1125.97 1055.73 1125.26C1056.44 1124.54 1056.84 1123.57 1056.84 1122.56ZM1055.39 1109.38L1044.41 1102.15H1044.41C1044.26 1102.05 1044.09 1102 1043.92 1102C1043.75 1102 1043.58 1102.05 1043.44 1102.15L1032.45 1109.38C1032.17 1109.57 1031.91 1109.8 1031.7 1110.06L1043.92 1117.7L1056.14 1110.06C1055.93 1109.8 1055.68 1109.57 1055.39 1109.38Z" fill="white"/>
<path fill-rule="evenodd" clip-rule="evenodd" d="M644 1149C641.239 1149 639 1151.24 639 1154V1189C639 1191.76 641.239 1194 644 1194H679C681.761 1194 684 1191.76 684 1189V1154C684 1151.24 681.761 1149 679 1149H644ZM663.715 1162.84C663.715 1162.74 663.722 1160.26 663.73 1157.33L663.746 1152L665.624 1152.06C667.738 1152.13 667.807 1152.16 667.953 1153.11C667.995 1153.38 668.012 1155.57 667.991 1157.98C667.957 1161.77 667.953 1162.5 667.59 1162.85C667.501 1162.93 667.39 1163 667.252 1163.08C666.985 1163.23 666.558 1163.27 665.327 1163.27C664.367 1163.27 663.74 1163.23 663.731 1163.15C663.722 1163.08 663.715 1162.95 663.715 1162.84ZM656.842 1157.05C658.017 1154.75 660.132 1152.73 661.989 1152.14C662.143 1152.09 662.257 1152.04 662.343 1152.07C662.606 1152.16 662.604 1153.02 662.677 1157.14C662.726 1159.94 662.747 1162.45 662.723 1162.71C662.684 1163.15 662.634 1163.21 662.266 1163.3C660.776 1163.68 660.261 1166.14 660.401 1172.21C660.522 1177.49 661.058 1179.7 662.296 1180.01L662.679 1180.11L662.742 1185.35C662.777 1188.23 662.786 1190.69 662.762 1190.8C662.727 1190.98 662.636 1191 662.203 1190.93C661.232 1190.77 659.829 1189.87 658.708 1188.69C658.135 1188.09 656.987 1186.42 656.564 1185.58C656.203 1184.86 655.496 1183.06 655.398 1182.61C655.348 1182.38 655.265 1182.13 655.214 1182.07C655.163 1182 655.053 1181.58 654.969 1181.14C654.886 1180.7 654.769 1180.17 654.709 1179.97C654.029 1177.67 653.784 1170.96 654.214 1166.48C654.378 1164.78 654.959 1161.63 655.203 1161.12C655.268 1160.98 655.36 1160.68 655.408 1160.44C655.456 1160.2 655.568 1159.84 655.658 1159.64C655.747 1159.44 655.951 1158.94 656.111 1158.53C656.27 1158.12 656.429 1157.76 656.465 1157.73C656.5 1157.7 656.67 1157.39 656.842 1157.05ZM663.718 1185.61C663.699 1182.64 663.704 1180.17 663.73 1180.11C663.755 1180.06 664.559 1180.03 665.516 1180.05C667.224 1180.09 667.262 1180.1 667.604 1180.44L667.951 1180.78V1185.59V1190.41L667.599 1190.7C667.263 1190.99 667.166 1191 665.499 1191H663.751L663.718 1185.61Z" fill="white"/>
<path fill-rule="evenodd" clip-rule="evenodd" d="M1304 332C1301.24 332 1299 334.239 1299 337V372C1299 374.761 1301.24 377 1304 377H1339C1341.76 377 1344 374.761 1344 372V337C1344 334.239 1341.76 332 1339 332H1304ZM1309 346.996C1308.36 347.633 1308 348.498 1308 349.4V359.6C1308 360.502 1308.36 361.367 1309 362.004C1309.63 362.642 1310.5 363 1311.4 363H1324.15C1324.97 363 1325.77 362.7 1326.39 362.157C1327.01 361.613 1327.41 360.863 1327.52 360.045L1332.81 362.395C1333.07 362.51 1333.35 362.558 1333.63 362.536C1333.92 362.514 1334.19 362.421 1334.43 362.267C1334.66 362.113 1334.86 361.902 1334.99 361.653C1335.13 361.404 1335.2 361.126 1335.2 360.843V348.157C1335.2 347.874 1335.13 347.595 1334.99 347.346C1334.86 347.097 1334.66 346.886 1334.43 346.732C1334.19 346.578 1333.92 346.485 1333.63 346.463C1333.35 346.441 1333.07 346.49 1332.81 346.605L1327.52 348.955C1327.41 348.137 1327.01 347.387 1326.39 346.843C1325.77 346.3 1324.97 346 1324.15 346H1311.4C1310.5 346 1309.63 346.358 1309 346.996Z" fill="white"/>
<path d="M1442.5 557H1435V570.75C1435 572.408 1434.34 573.997 1433.17 575.169C1432 576.342 1430.41 577 1428.75 577C1427.09 577 1425.5 576.342 1424.33 575.169C1423.16 573.997 1422.5 572.408 1422.5 570.75C1422.5 569.092 1423.16 567.503 1424.33 566.331C1425.5 565.158 1427.09 564.5 1428.75 564.5C1430.17 564.5 1431.45 564.975 1432.5 565.75V552H1442.5V557ZM1450 542H1415C1413.67 542 1412.4 542.527 1411.46 543.464C1410.53 544.402 1410 545.674 1410 547V582C1410 583.326 1410.53 584.598 1411.46 585.536C1412.4 586.473 1413.67 587 1415 587H1450C1451.33 587 1452.6 586.473 1453.54 585.536C1454.47 584.598 1455 583.326 1455 582V547C1455 545.674 1454.47 544.402 1453.54 543.464C1452.6 542.527 1451.33 542 1450 542Z" fill="white"/>
<path fill-rule="evenodd" clip-rule="evenodd" d="M1721 723C1718.24 723 1716 725.239 1716 728V763C1716 765.761 1718.24 768 1721 768H1756C1758.76 768 1761 765.761 1761 763V728C1761 725.239 1758.76 723 1756 723H1721ZM1729.22 757.9C1729.22 756.195 1730.59 754.8 1732.3 754.8C1734 754.8 1735.4 756.195 1735.4 757.9C1735.4 759.605 1734 761 1732.3 761C1730.59 761 1729.22 759.605 1729.22 757.9ZM1723 733.1V730H1728.07L1729.53 733.1H1752.45C1752.72 733.101 1752.98 733.171 1753.22 733.304C1753.45 733.437 1753.64 733.629 1753.78 733.86C1753.92 734.091 1753.99 734.354 1754 734.623C1754.01 734.892 1753.94 735.157 1753.81 735.394L1748.26 745.453C1747.74 746.414 1746.71 747.05 1745.55 747.05H1734L1732.61 749.576L1732.56 749.762C1732.56 749.979 1732.73 750.15 1732.95 750.15H1750.9V753.25H1732.3C1730.59 753.25 1729.2 751.855 1729.2 750.15C1729.2 749.608 1729.34 749.096 1729.59 748.662L1731.68 744.865L1726.1 733.1H1723ZM1744.71 757.9C1744.71 756.195 1746.09 754.8 1747.8 754.8C1749.5 754.8 1750.9 756.195 1750.9 757.9C1750.9 759.605 1749.5 761 1747.8 761C1746.09 761 1744.71 759.605 1744.71 757.9Z" fill="white"/>
<path fill-rule="evenodd" clip-rule="evenodd" d="M636 439C633.239 439 631 441.239 631 444V479C631 481.761 633.239 484 636 484H671C673.761 484 676 481.761 676 479V444C676 441.239 673.761 439 671 439H636ZM647.979 447H660.016C660.2 447 661.858 447.052 663.448 448.869C664.956 450.592 665.001 452.337 665 452.6V468C665 468.743 664.71 469.455 664.195 469.98C663.679 470.505 662.979 470.8 662.25 470.8H660.875L663.625 475H660.458L659.527 473.6H648.527L647.61 475H644.375L647.125 470.8H645.75C645.021 470.8 644.321 470.505 643.805 469.98C643.29 469.455 643 468.743 643 468V452.6C643 452.407 643.043 450.662 644.537 448.891C646.055 447.091 647.671 447 647.979 447ZM656.75 449.8H651.25V452.6H656.75V449.8ZM646.354 467.384C646.741 467.778 647.265 468 647.812 468C648.36 468 648.885 467.779 649.272 467.385C649.659 466.991 649.876 466.457 649.876 465.9C649.877 465.343 649.659 464.808 649.273 464.414C648.886 464.02 648.361 463.799 647.814 463.799C647.267 463.798 646.742 464.02 646.355 464.413C645.968 464.807 645.75 465.341 645.75 465.899C645.75 466.456 645.967 466.99 646.354 467.384ZM658.729 467.384C659.116 467.778 659.64 468 660.187 468C660.735 468 661.26 467.779 661.647 467.385C662.034 466.991 662.251 466.457 662.251 465.9C662.252 465.343 662.034 464.808 661.648 464.414C661.261 464.02 660.736 463.799 660.189 463.799C659.642 463.798 659.117 464.02 658.73 464.413C658.343 464.807 658.125 465.341 658.125 465.899C658.125 466.456 658.342 466.99 658.729 467.384ZM645.75 461H662.25V455.4H645.75V461Z" fill="white"/>
<rect width="45.6625" height="19" transform="matrix(0.866025 -0.5 0.866025 0.5 875 460.831)" fill="#C4C4C4"/>
<rect width="45.6625" height="19" transform="matrix(0.866025 -0.5 0.866025 0.5 1082 340.831)" fill="#C4C4C4"/>
<rect width="45.6625" height="19" transform="matrix(0.866025 -0.5 0.866025 0.5 1321 202.831)" fill="#C4C4C4"/>
<path d="M702.606 508.579C704.609 497.16 712.504 485.313 721.614 480.054L926.6 361.705L926.6 423.705L705.744 551.216C703.864 551.703 702.295 551.111 701.433 549.59L701.433 533.205L701.433 515.261L702.606 508.579Z" fill="#9B9B9B" stroke="white"/>
<path d="M935.259 356.705L1186.41 211.705L1186.41 273.705L935.259 418.705L935.259 356.705Z" fill="#9B9B9B" stroke="white"/>
<rect x="0.433013" y="0.25" width="52" height="22" transform="matrix(0.866025 -0.5 2.20305e-08 1 805.847 445.172)" stroke="white"/>
<rect x="0.433013" y="0.25" width="52" height="22" transform="matrix(0.866025 -0.5 2.20305e-08 1 754.751 474.672)" stroke="white"/>
<rect x="0.433013" y="0.25" width="52" height="22" transform="matrix(0.866025 -0.5 2.20305e-08 1 1020.62 321.172)" fill="#9B9B9B" stroke="white"/>
<rect x="0.433013" y="0.25" width="52" height="22" transform="matrix(0.866025 -0.5 2.20305e-08 1 1130.61 257.672)" stroke="white"/>
<rect width="19" height="46" transform="matrix(0.866025 -0.5 2.20305e-08 1 874.205 405.455)" fill="white"/>
<rect width="19" height="46" transform="matrix(0.866025 -0.5 2.20305e-08 1 1086.38 282.955)" fill="white"/>
<rect width="19" height="46" transform="matrix(0.866025 -0.5 2.20305e-08 1 891.525 395.455)" fill="white"/>
<rect width="19" height="46" transform="matrix(0.866025 -0.5 2.20305e-08 1 1103.7 272.955)" fill="white"/>
<rect x="0.433013" y="0.25" width="52" height="22" transform="matrix(0.866025 -0.5 2.20305e-08 1 955.669 358.672)" fill="#9B9B9B" stroke="white"/>
<path d="M723.083 493.205L739.538 483.705L739.538 506.705L723.083 516.205L723.083 493.205Z" fill="#9B9B9B" stroke="white"/>
<path d="M1195.93 206.205L1439.29 65.7051L1439.29 127.705L1195.93 268.205L1195.93 206.205Z" fill="#9B9B9B" stroke="white"/>
<rect x="0.433013" y="0.25" width="51.5184" height="22" transform="matrix(0.866025 -0.5 2.20305e-08 1 1270.02 177.184)" stroke="white"/>
<rect x="0.433013" y="0.25" width="51.5184" height="22" transform="matrix(0.866025 -0.5 2.20305e-08 1 1379 114.26)" stroke="white"/>
<rect width="18.8273" height="46" transform="matrix(0.866025 -0.5 2.20305e-08 1 1335.18 139.312)" fill="white"/>
<rect width="18.8274" height="46" transform="matrix(0.866025 -0.5 2.20305e-08 1 1352.34 129.403)" fill="white"/>
<rect x="0.433013" y="0.25" width="51.5184" height="22" transform="matrix(0.866025 -0.5 2.20305e-08 1 1205.65 214.343)" stroke="white"/>
</g>
<defs>
<filter id="filter0_d_541:1051" x="98.6973" y="124.275" width="2001.1" height="1178.79" filterUnits="userSpaceOnUse" color-interpolation-filters="sRGB">
<feFlood flood-opacity="0" result="BackgroundImageFix"/>
<feColorMatrix in="SourceAlpha" type="matrix" values="0 0 0 0 0 0 0 0 0 0 0 0 0 0 0 0 0 0 127 0" result="hardAlpha"/>
<feOffset dy="25"/>
<feGaussianBlur stdDeviation="5"/>
<feColorMatrix type="matrix" values="0 0 0 0 0.279167 0 0 0 0 0.275677 0 0 0 0 0.275677 0 0 0 0.25 0"/>
<feBlend mode="normal" in2="BackgroundImageFix" result="effect1_dropShadow_541:1051"/>
<feBlend mode="normal" in="SourceGraphic" in2="effect1_dropShadow_541:1051" result="shape"/>
</filter>
<filter id="filter1_d_541:1051" x="999.402" y="907.192" width="164.645" height="170.053" filterUnits="userSpaceOnUse" color-interpolation-filters="sRGB">
<feFlood flood-opacity="0" result="BackgroundImageFix"/>
<feColorMatrix in="SourceAlpha" type="matrix" values="0 0 0 0 0 0 0 0 0 0 0 0 0 0 0 0 0 0 127 0" result="hardAlpha"/>
<feOffset/>
<feGaussianBlur stdDeviation="2"/>
<feColorMatrix type="matrix" values="0 0 0 0 1 0 0 0 0 0.2125 0 0 0 0 0.5905 0 0 0 1 0"/>
<feBlend mode="normal" in2="BackgroundImageFix" result="effect1_dropShadow_541:1051"/>
<feBlend mode="normal" in="SourceGraphic" in2="effect1_dropShadow_541:1051" result="shape"/>
</filter>
<linearGradient id="paint0_linear_541:1051" x1="2118.61" y1="528.084" x2="2118.61" y2="780.773" gradientUnits="userSpaceOnUse">
<stop offset="0.34375" stop-color="#9B9B9B" stop-opacity="0.15"/>
<stop offset="0.651042" stop-color="#9B9B9B"/>
</linearGradient>
<linearGradient id="paint1_linear_541:1051" x1="1579.26" y1="1116" x2="1579.26" y2="1280.98" gradientUnits="userSpaceOnUse">
<stop offset="0.34375" stop-color="#9B9B9B" stop-opacity="0.15"/>
<stop offset="0.651042" stop-color="#9B9B9B"/>
</linearGradient>
<clipPath id="clip0_541:1051">
<rect width="2380" height="1374" fill="white"/>
</clipPath>
</defs>
</svg>
