<svg width="16" height="44" viewBox="0 0 16 44" fill="none" xmlns="http://www.w3.org/2000/svg">
<path d="M7.67742 0C8.84095 0 9.95682 0.46357 10.7796 1.28873C11.6023 2.11389 12.0645 3.23305 12.0645 4.4C12.0645 5.56695 11.6023 6.68611 10.7796 7.51127C9.95682 8.33643 8.84095 8.8 7.67742 8.8C6.51389 8.8 5.39801 8.33643 4.57527 7.51127C3.75253 6.68611 3.29032 5.56695 3.29032 4.4C3.29032 3.23305 3.75253 2.11389 4.57527 1.28873C5.39801 0.46357 6.51389 0 7.67742 0ZM4.3871 11H10.9677C12.1313 11 13.2471 11.4636 14.0699 12.2887C14.8926 13.1139 15.3548 14.233 15.3548 15.4V27.5H12.0645V44H3.29032V27.5H0V15.4C0 14.233 0.46221 13.1139 1.28495 12.2887C2.10769 11.4636 3.22357 11 4.3871 11Z" fill="#FFFDFD"/>
</svg>
